<svg version="1.1" xmlns="http://www.w3.org/2000/svg" xmlns:xlink="http://www.w3.org/1999/xlink" width="464.40000000000003" height="378.40000000000003"><defs><linearGradient id="XEOKEqDahQVP" x1="300px" x2="1403.0000007152557px" y1="1190.500002861023px" y2="439px" gradientUnits="userSpaceOnUse"><stop offset="0" stop-color="rgb(255,193,7)" stop-opacity="1"/><stop offset="1" stop-color="rgb(211,211,211)" stop-opacity="1"/></linearGradient><linearGradient id="cJrtuRVKDQHw" x1="300px" x2="1403.0000007152557px" y1="1323.5000035762787px" y2="439px" gradientUnits="userSpaceOnUse"><stop offset="0" stop-color="rgb(255,193,7)" stop-opacity="1"/><stop offset="1" stop-color="rgb(211,211,211)" stop-opacity="1"/></linearGradient><linearGradient id="RZBHIrzvUtJE" x1="300px" x2="1403.0000007152557px" y1="1456.5000042915344px" y2="439px" gradientUnits="userSpaceOnUse"><stop offset="0" stop-color="rgb(255,193,7)" stop-opacity="1"/><stop offset="1" stop-color="rgb(211,211,211)" stop-opacity="1"/></linearGradient><linearGradient id="BJfRsMgoUQli" x1="300px" x2="1403.0000007152557px" y1="1057.5000021457672px" y2="439px" gradientUnits="userSpaceOnUse"><stop offset="0" stop-color="rgb(255,193,7)" stop-opacity="1"/><stop offset="1" stop-color="rgb(211,211,211)" stop-opacity="1"/></linearGradient></defs><g transform="translate(56.2,9.5) scale(0.2,0.2)"><path fill="rgb(244,236,255)" stroke="rgb(255,255,255)" paint-order="fill stroke markers" d=" M 879.5000003576279 -45.5 L 2030.0000007152557 -45.5 L 2030.0000007152557 -45.5 A 8 8 0 0 1 2038.0000007152557 -37.5 L 2038.0000007152557 1834.0000042915344 L 2038.0000007152557 1834.0000042915344 A 8 8 0 0 1 2030.0000007152557 1842.0000042915344 L -271 1842.0000042915344 L -271 1842.0000042915344 A 8 8 0 0 1 -279 1834.0000042915344 L -279 -37.5 L -279 -37.5 A 8 8 0 0 1 -271 -45.5 L 879.5000003576279 -45.5 Z" fill-opacity="1" stroke-opacity="1" stroke-miterlimit="10" stroke-width="2"/><text fill="rgb(0,0,0)" stroke="none" font-family="Avenir, Helvetica, Arial, sans-serif" font-size="32px" font-style="normal" font-weight="bold" text-decoration="normal" x="879.5000003576279" y="29.5" text-anchor="middle" dominant-baseline="text-after-edge" fill-opacity="1">.</text><path fill="rgb(255,255,255)" stroke="rgb(211,211,211)" paint-order="fill stroke markers" d=" M 300 956.5000021457672 L 669.5 956.5000021457672 L 669.5 956.5000021457672 A 8 8 0 0 1 677.5 964.5000021457672 L 677.5 1632.5000042915344 L 677.5 1632.5000042915344 A 8 8 0 0 1 669.5 1640.5000042915344 L -69.5 1640.5000042915344 L -69.5 1640.5000042915344 A 8 8 0 0 1 -77.5 1632.5000042915344 L -77.5 964.5000021457672 L -77.5 964.5000021457672 A 8 8 0 0 1 -69.5 956.5000021457672 L 300 956.5000021457672 Z" fill-opacity="1" stroke-opacity="1" stroke-miterlimit="10"/><text fill="rgb(0,0,0)" stroke="none" font-family="Avenir, Helvetica, Arial, sans-serif" font-size="32px" font-style="normal" font-weight="bold" text-decoration="normal" x="300" y="1031.5000021457672" text-anchor="middle" dominant-baseline="text-after-edge" fill-opacity="1">outputs.tf</text><path fill="rgb(255,255,255)" stroke="rgb(211,211,211)" paint-order="fill stroke markers" d=" M 300 157.5 L 669.5 157.5 L 669.5 157.5 A 8 8 0 0 1 677.5 165.5 L 677.5 700.5000014305115 L 677.5 700.5000014305115 A 8 8 0 0 1 669.5 708.5000014305115 L -69.5 708.5000014305115 L -69.5 708.5000014305115 A 8 8 0 0 1 -77.5 700.5000014305115 L -77.5 165.5 L -77.5 165.5 A 8 8 0 0 1 -69.5 157.5 L 300 157.5 Z" fill-opacity="1" stroke-opacity="1" stroke-miterlimit="10"/><text fill="rgb(0,0,0)" stroke="none" font-family="Avenir, Helvetica, Arial, sans-serif" font-size="32px" font-style="normal" font-weight="bold" text-decoration="normal" x="300" y="232.5" text-anchor="middle" dominant-baseline="text-after-edge" fill-opacity="1">variables.tf</text><path fill="rgb(255,255,255)" stroke="rgb(211,211,211)" paint-order="fill stroke markers" d=" M 1403.0000007152557 156 L 1828.5000007152557 156 L 1828.5000007152557 156 A 8 8 0 0 1 1836.5000007152557 164 L 1836.5000007152557 590.5 L 1836.5000007152557 590.5 A 8 8 0 0 1 1828.5000007152557 598.5 L 977.5000007152557 598.5 L 977.5000007152557 598.5 A 8 8 0 0 1 969.5000007152557 590.5 L 969.5000007152557 164 L 969.5000007152557 164 A 8 8 0 0 1 977.5000007152557 156 L 1403.0000007152557 156 Z" fill-opacity="1" stroke-opacity="1" stroke-miterlimit="10"/><text fill="rgb(0,0,0)" stroke="none" font-family="Avenir, Helvetica, Arial, sans-serif" font-size="32px" font-style="normal" font-weight="bold" text-decoration="normal" x="1403.0000007152557" y="231" text-anchor="middle" dominant-baseline="text-after-edge" fill-opacity="1">main.tf</text><path fill="rgb(255,255,255)" stroke="rgb(0,0,0)" paint-order="fill stroke markers" d=" M 1403.0000007152557 305 L 1725.0000007152557 305 L 1725.0000007152557 305 A 8 8 0 0 1 1733.0000007152557 313 L 1733.0000007152557 487 L 1733.0000007152557 487 A 8 8 0 0 1 1725.0000007152557 495 L 1081.0000007152557 495 L 1081.0000007152557 495 A 8 8 0 0 1 1073.0000007152557 487 L 1073.0000007152557 313 L 1073.0000007152557 313 A 8 8 0 0 1 1081.0000007152557 305 L 1403.0000007152557 305 Z" fill-opacity="1" stroke-opacity="1" stroke-miterlimit="10" stroke-width="5"/><rect fill="rgb(255,255,255)" stroke="none" x="1220.5000007152557" y="256" width="365" height="96" fill-opacity="1"/><text fill="rgb(0,0,0)" stroke="none" font-family="Avenir, Helvetica, Arial, sans-serif" font-size="32px" font-style="normal" font-weight="bold" text-decoration="normal" x="1403.0000007152557" y="320" text-anchor="middle" dominant-baseline="text-after-edge" fill-opacity="1">tfe_registry_module</text><path fill="none" stroke="url(#XEOKEqDahQVP)" paint-order="fill stroke markers" d=" M 300 1190.500002861023 L 300 814.7500014305115 L 1403.0000007152557 814.7500014305115 L 1403.0000007152557 439" stroke-linejoin="round" stroke-miterlimit="10" stroke-width="10"/><path fill="none" stroke="url(#cJrtuRVKDQHw)" paint-order="fill stroke markers" d=" M 300 1323.5000035762787 L 300 881.2500017881393 L 1403.0000007152557 881.2500017881393 L 1403.0000007152557 439" stroke-linejoin="round" stroke-miterlimit="10" stroke-width="10"/><path fill="none" stroke="url(#RZBHIrzvUtJE)" paint-order="fill stroke markers" d=" M 300 1456.5000042915344 L 300 947.7500021457672 L 1403.0000007152557 947.7500021457672 L 1403.0000007152557 439" stroke-linejoin="round" stroke-miterlimit="10" stroke-width="10"/><path fill="none" stroke="url(#BJfRsMgoUQli)" paint-order="fill stroke markers" d=" M 300 1057.5000021457672 L 300 748.2500010728836 L 1403.0000007152557 748.2500010728836 L 1403.0000007152557 439" stroke-linejoin="round" stroke-miterlimit="10" stroke-width="10"/><path fill="rgb(255,247,224)" stroke="rgb(255,193,7)" paint-order="fill stroke markers" d=" M 300 1060.0000021457672 L 566 1060.0000021457672 L 566 1060.0000021457672 A 8 8 0 0 1 574 1068.0000021457672 L 574 1130.0000021457672 L 574 1130.0000021457672 A 8 8 0 0 1 566 1138.0000021457672 L 34 1138.0000021457672 L 34 1138.0000021457672 A 8 8 0 0 1 26 1130.0000021457672 L 26 1068.0000021457672 L 26 1068.0000021457672 A 8 8 0 0 1 34 1060.0000021457672 L 300 1060.0000021457672 Z" fill-opacity="1" stroke-opacity="1" stroke-miterlimit="10" stroke-width="5"/><text fill="rgb(0,0,0)" stroke="none" font-family="Avenir, Helvetica, Arial, sans-serif" font-size="32px" font-style="normal" font-weight="bold" text-decoration="normal" x="300" y="1115.0000021457672" text-anchor="middle" dominant-baseline="text-after-edge" fill-opacity="1">organization</text><path fill="rgb(255,247,224)" stroke="rgb(255,193,7)" paint-order="fill stroke markers" d=" M 300 1193.000002861023 L 566 1193.000002861023 L 566 1193.000002861023 A 8 8 0 0 1 574 1201.000002861023 L 574 1263.000002861023 L 574 1263.000002861023 A 8 8 0 0 1 566 1271.000002861023 L 34 1271.000002861023 L 34 1271.000002861023 A 8 8 0 0 1 26 1263.000002861023 L 26 1201.000002861023 L 26 1201.000002861023 A 8 8 0 0 1 34 1193.000002861023 L 300 1193.000002861023 Z" fill-opacity="1" stroke-opacity="1" stroke-miterlimit="10" stroke-width="5"/><text fill="rgb(0,0,0)" stroke="none" font-family="Avenir, Helvetica, Arial, sans-serif" font-size="32px" font-style="normal" font-weight="bold" text-decoration="normal" x="300" y="1248.000002861023" text-anchor="middle" dominant-baseline="text-after-edge" fill-opacity="1">id</text><path fill="rgb(255,247,224)" stroke="rgb(255,193,7)" paint-order="fill stroke markers" d=" M 300 1326.0000035762787 L 566 1326.0000035762787 L 566 1326.0000035762787 A 8 8 0 0 1 574 1334.0000035762787 L 574 1396.0000035762787 L 574 1396.0000035762787 A 8 8 0 0 1 566 1404.0000035762787 L 34 1404.0000035762787 L 34 1404.0000035762787 A 8 8 0 0 1 26 1396.0000035762787 L 26 1334.0000035762787 L 26 1334.0000035762787 A 8 8 0 0 1 34 1326.0000035762787 L 300 1326.0000035762787 Z" fill-opacity="1" stroke-opacity="1" stroke-miterlimit="10" stroke-width="5"/><text fill="rgb(0,0,0)" stroke="none" font-family="Avenir, Helvetica, Arial, sans-serif" font-size="32px" font-style="normal" font-weight="bold" text-decoration="normal" x="300" y="1381.0000035762787" text-anchor="middle" dominant-baseline="text-after-edge" fill-opacity="1">module_provider</text><path fill="rgb(255,247,224)" stroke="rgb(255,193,7)" paint-order="fill stroke markers" d=" M 300 1459.0000042915344 L 566 1459.0000042915344 L 566 1459.0000042915344 A 8 8 0 0 1 574 1467.0000042915344 L 574 1529.0000042915344 L 574 1529.0000042915344 A 8 8 0 0 1 566 1537.0000042915344 L 34 1537.0000042915344 L 34 1537.0000042915344 A 8 8 0 0 1 26 1529.0000042915344 L 26 1467.0000042915344 L 26 1467.0000042915344 A 8 8 0 0 1 34 1459.0000042915344 L 300 1459.0000042915344 Z" fill-opacity="1" stroke-opacity="1" stroke-miterlimit="10" stroke-width="5"/><text fill="rgb(0,0,0)" stroke="none" font-family="Avenir, Helvetica, Arial, sans-serif" font-size="32px" font-style="normal" font-weight="bold" text-decoration="normal" x="300" y="1514.0000042915344" text-anchor="middle" dominant-baseline="text-after-edge" fill-opacity="1">name</text><path fill="rgb(225,240,255)" stroke="rgb(29,122,218)" paint-order="fill stroke markers" d=" M 300 261 L 566 261 L 566 261 A 8 8 0 0 1 574 269 L 574 331 L 574 331 A 8 8 0 0 1 566 339 L 34 339 L 34 339 A 8 8 0 0 1 26 331 L 26 269 L 26 269 A 8 8 0 0 1 34 261 L 300 261 Z" fill-opacity="1" stroke-opacity="1" stroke-miterlimit="10" stroke-width="5"/><text fill="rgb(0,0,0)" stroke="none" font-family="Avenir, Helvetica, Arial, sans-serif" font-size="32px" font-style="normal" font-weight="bold" text-decoration="normal" x="300" y="316" text-anchor="middle" dominant-baseline="text-after-edge" fill-opacity="1">identifier</text><path fill="rgb(225,240,255)" stroke="rgb(29,122,218)" paint-order="fill stroke markers" d=" M 300 394.00000071525574 L 566 394.00000071525574 L 566 394.00000071525574 A 8 8 0 0 1 574 402.00000071525574 L 574 464.00000071525574 L 574 464.00000071525574 A 8 8 0 0 1 566 472.00000071525574 L 34 472.00000071525574 L 34 472.00000071525574 A 8 8 0 0 1 26 464.00000071525574 L 26 402.00000071525574 L 26 402.00000071525574 A 8 8 0 0 1 34 394.00000071525574 L 300 394.00000071525574 Z" fill-opacity="1" stroke-opacity="1" stroke-miterlimit="10" stroke-width="5"/><text fill="rgb(0,0,0)" stroke="none" font-family="Avenir, Helvetica, Arial, sans-serif" font-size="32px" font-style="normal" font-weight="bold" text-decoration="normal" x="300" y="449.00000071525574" text-anchor="middle" dominant-baseline="text-after-edge" fill-opacity="1">oauth_token_id</text><path fill="rgb(225,240,255)" stroke="rgb(29,122,218)" paint-order="fill stroke markers" d=" M 300 527.0000014305115 L 566 527.0000014305115 L 566 527.0000014305115 A 8 8 0 0 1 574 535.0000014305115 L 574 597.0000014305115 L 574 597.0000014305115 A 8 8 0 0 1 566 605.0000014305115 L 34 605.0000014305115 L 34 605.0000014305115 A 8 8 0 0 1 26 597.0000014305115 L 26 535.0000014305115 L 26 535.0000014305115 A 8 8 0 0 1 34 527.0000014305115 L 300 527.0000014305115 Z" fill-opacity="1" stroke-opacity="1" stroke-miterlimit="10" stroke-width="5"/><text fill="rgb(0,0,0)" stroke="none" font-family="Avenir, Helvetica, Arial, sans-serif" font-size="32px" font-style="normal" font-weight="bold" text-decoration="normal" x="300" y="582.0000014305115" text-anchor="middle" dominant-baseline="text-after-edge" fill-opacity="1">display_identifier</text><path fill="rgb(40,167,69)" stroke="none" paint-order="stroke fill markers" d=" M 1403.0000007152557 361 L 1669.0000007152557 361 L 1669.0000007152557 361 A 8 8 0 0 1 1677.0000007152557 369 L 1677.0000007152557 431 L 1677.0000007152557 431 A 8 8 0 0 1 1669.0000007152557 439 L 1137.0000007152557 439 L 1137.0000007152557 439 A 8 8 0 0 1 1129.0000007152557 431 L 1129.0000007152557 369 L 1129.0000007152557 369 A 8 8 0 0 1 1137.0000007152557 361 L 1403.0000007152557 361 Z" fill-opacity="1"/><text fill="rgb(255,255,255)" stroke="none" font-family="Avenir, Helvetica, Arial, sans-serif" font-size="32px" font-style="normal" font-weight="bold" text-decoration="normal" x="1403.0000007152557" y="416" text-anchor="middle" dominant-baseline="text-after-edge" fill-opacity="1">default</text><g transform="scale(5,5) translate(-56.2,-9.5)"/></g></svg>