<svg version="1.1" xmlns="http://www.w3.org/2000/svg" xmlns:xlink="http://www.w3.org/1999/xlink" width="131.8" height="164.8"><defs/><g transform="translate(28.1,4.6000000000000005) scale(0.1,0.1)"><path fill="rgb(244,236,255)" stroke="rgb(255,255,255)" paint-order="fill stroke markers" d=" M 378 -44 L 1027 -44 L 1027 -44 A 8 8 0 0 1 1035 -36 L 1035 1591.0000021457672 L 1035 1591.0000021457672 A 8 8 0 0 1 1027 1599.0000021457672 L -271 1599.0000021457672 L -271 1599.0000021457672 A 8 8 0 0 1 -279 1591.0000021457672 L -279 -36 L -279 -36 A 8 8 0 0 1 -271 -44 L 378 -44 Z" fill-opacity="1" stroke-opacity="1" stroke-miterlimit="10" stroke-width="2"/><text fill="rgb(0,0,0)" stroke="none" font-family="Avenir, Helvetica, Arial, sans-serif" font-size="32px" font-style="normal" font-weight="bold" text-decoration="normal" x="378" y="31" text-anchor="middle" dominant-baseline="text-after-edge" fill-opacity="1">.</text><path fill="rgb(255,255,255)" stroke="rgb(211,211,211)" paint-order="fill stroke markers" d=" M 300 157.5 L 669.5 157.5 L 669.5 157.5 A 8 8 0 0 1 677.5 165.5 L 677.5 700.5000014305115 L 677.5 700.5000014305115 A 8 8 0 0 1 669.5 708.5000014305115 L -69.5 708.5000014305115 L -69.5 708.5000014305115 A 8 8 0 0 1 -77.5 700.5000014305115 L -77.5 165.5 L -77.5 165.5 A 8 8 0 0 1 -69.5 157.5 L 300 157.5 Z" fill-opacity="1" stroke-opacity="1" stroke-miterlimit="10"/><text fill="rgb(0,0,0)" stroke="none" font-family="Avenir, Helvetica, Arial, sans-serif" font-size="32px" font-style="normal" font-weight="bold" text-decoration="normal" x="300" y="232.5" text-anchor="middle" dominant-baseline="text-after-edge" fill-opacity="1">variables.tf</text><path fill="rgb(255,255,255)" stroke="rgb(211,211,211)" paint-order="fill stroke markers" d=" M 400 955.0000021457672 L 825.5 955.0000021457672 L 825.5 955.0000021457672 A 8 8 0 0 1 833.5 963.0000021457672 L 833.5 1389.5000021457672 L 833.5 1389.5000021457672 A 8 8 0 0 1 825.5 1397.5000021457672 L -25.5 1397.5000021457672 L -25.5 1397.5000021457672 A 8 8 0 0 1 -33.5 1389.5000021457672 L -33.5 963.0000021457672 L -33.5 963.0000021457672 A 8 8 0 0 1 -25.5 955.0000021457672 L 400 955.0000021457672 Z" fill-opacity="1" stroke-opacity="1" stroke-miterlimit="10"/><text fill="rgb(0,0,0)" stroke="none" font-family="Avenir, Helvetica, Arial, sans-serif" font-size="32px" font-style="normal" font-weight="bold" text-decoration="normal" x="400" y="1030.0000021457672" text-anchor="middle" dominant-baseline="text-after-edge" fill-opacity="1">main.tf</text><path fill="rgb(255,255,255)" stroke="rgb(0,0,0)" paint-order="fill stroke markers" d=" M 400 1104.0000021457672 L 722 1104.0000021457672 L 722 1104.0000021457672 A 8 8 0 0 1 730 1112.0000021457672 L 730 1286.0000021457672 L 730 1286.0000021457672 A 8 8 0 0 1 722 1294.0000021457672 L 78 1294.0000021457672 L 78 1294.0000021457672 A 8 8 0 0 1 70 1286.0000021457672 L 70 1112.0000021457672 L 70 1112.0000021457672 A 8 8 0 0 1 78 1104.0000021457672 L 400 1104.0000021457672 Z" fill-opacity="1" stroke-opacity="1" stroke-miterlimit="10" stroke-width="5"/><rect fill="rgb(255,255,255)" stroke="none" x="210" y="1055.0000021457672" width="380" height="96" fill-opacity="1"/><text fill="rgb(0,0,0)" stroke="none" font-family="Avenir, Helvetica, Arial, sans-serif" font-size="32px" font-style="normal" font-weight="bold" text-decoration="normal" x="400" y="1119.0000021457672" text-anchor="middle" dominant-baseline="text-after-edge" fill-opacity="1">tfe_registry_module</text><path fill="rgb(225,240,255)" stroke="rgb(29,122,218)" paint-order="fill stroke markers" d=" M 300 261 L 566 261 L 566 261 A 8 8 0 0 1 574 269 L 574 331 L 574 331 A 8 8 0 0 1 566 339 L 34 339 L 34 339 A 8 8 0 0 1 26 331 L 26 269 L 26 269 A 8 8 0 0 1 34 261 L 300 261 Z" fill-opacity="1" stroke-opacity="1" stroke-miterlimit="10" stroke-width="5"/><text fill="rgb(0,0,0)" stroke="none" font-family="Avenir, Helvetica, Arial, sans-serif" font-size="32px" font-style="normal" font-weight="bold" text-decoration="normal" x="300" y="316" text-anchor="middle" dominant-baseline="text-after-edge" fill-opacity="1">display_identifier</text><path fill="rgb(225,240,255)" stroke="rgb(29,122,218)" paint-order="fill stroke markers" d=" M 300 394.00000071525574 L 566 394.00000071525574 L 566 394.00000071525574 A 8 8 0 0 1 574 402.00000071525574 L 574 464.00000071525574 L 574 464.00000071525574 A 8 8 0 0 1 566 472.00000071525574 L 34 472.00000071525574 L 34 472.00000071525574 A 8 8 0 0 1 26 464.00000071525574 L 26 402.00000071525574 L 26 402.00000071525574 A 8 8 0 0 1 34 394.00000071525574 L 300 394.00000071525574 Z" fill-opacity="1" stroke-opacity="1" stroke-miterlimit="10" stroke-width="5"/><text fill="rgb(0,0,0)" stroke="none" font-family="Avenir, Helvetica, Arial, sans-serif" font-size="32px" font-style="normal" font-weight="bold" text-decoration="normal" x="300" y="449.00000071525574" text-anchor="middle" dominant-baseline="text-after-edge" fill-opacity="1">identifier</text><path fill="rgb(225,240,255)" stroke="rgb(29,122,218)" paint-order="fill stroke markers" d=" M 300 527.0000014305115 L 566 527.0000014305115 L 566 527.0000014305115 A 8 8 0 0 1 574 535.0000014305115 L 574 597.0000014305115 L 574 597.0000014305115 A 8 8 0 0 1 566 605.0000014305115 L 34 605.0000014305115 L 34 605.0000014305115 A 8 8 0 0 1 26 597.0000014305115 L 26 535.0000014305115 L 26 535.0000014305115 A 8 8 0 0 1 34 527.0000014305115 L 300 527.0000014305115 Z" fill-opacity="1" stroke-opacity="1" stroke-miterlimit="10" stroke-width="5"/><text fill="rgb(0,0,0)" stroke="none" font-family="Avenir, Helvetica, Arial, sans-serif" font-size="32px" font-style="normal" font-weight="bold" text-decoration="normal" x="300" y="582.0000014305115" text-anchor="middle" dominant-baseline="text-after-edge" fill-opacity="1">oauth_token_id</text><path fill="rgb(40,167,69)" stroke="none" paint-order="stroke fill markers" d=" M 400 1160.0000021457672 L 666 1160.0000021457672 L 666 1160.0000021457672 A 8 8 0 0 1 674 1168.0000021457672 L 674 1230.0000021457672 L 674 1230.0000021457672 A 8 8 0 0 1 666 1238.0000021457672 L 134 1238.0000021457672 L 134 1238.0000021457672 A 8 8 0 0 1 126 1230.0000021457672 L 126 1168.0000021457672 L 126 1168.0000021457672 A 8 8 0 0 1 134 1160.0000021457672 L 400 1160.0000021457672 Z" fill-opacity="1"/><text fill="rgb(255,255,255)" stroke="none" font-family="Avenir, Helvetica, Arial, sans-serif" font-size="32px" font-style="normal" font-weight="bold" text-decoration="normal" x="400" y="1215.0000021457672" text-anchor="middle" dominant-baseline="text-after-edge" fill-opacity="1">default</text><g transform="scale(10,10) translate(-28.1,-4.6000000000000005)"/></g></svg>