<svg version="1.1" xmlns="http://www.w3.org/2000/svg" xmlns:xlink="http://www.w3.org/1999/xlink" width="1384.8000000000002" height="963.4000000000001"><defs><linearGradient id="AgOqGNQWauBm" x1="1140px" x2="1608.199999284744px" y1="2861.233342035611px" y2="3013.083342750867px" gradientUnits="userSpaceOnUse"><stop offset="0" stop-color="rgb(132,80,186)" stop-opacity="1"/><stop offset="1" stop-color="rgb(132,80,186)" stop-opacity="1"/></linearGradient><linearGradient id="LpQkouaHECTR" x1="1140px" x2="1608.199999284744px" y1="2861.233342035611px" y2="3013.083342750867px" gradientUnits="userSpaceOnUse"><stop offset="0" stop-color="rgb(132,80,186)" stop-opacity="1"/><stop offset="1" stop-color="rgb(132,80,186)" stop-opacity="1"/></linearGradient><linearGradient id="hGpivTZqfTcD" x1="3735.2px" x2="4046.399999284744px" y1="3013.083342750867px" y2="3089.9500096559523px" gradientUnits="userSpaceOnUse"><stop offset="0" stop-color="rgb(132,80,186)" stop-opacity="1"/><stop offset="1" stop-color="rgb(132,80,186)" stop-opacity="1"/></linearGradient><linearGradient id="WInNbwWtixlT" x1="3735.2px" x2="4046.399999284744px" y1="3013.083342750867px" y2="3089.9500096559523px" gradientUnits="userSpaceOnUse"><stop offset="0" stop-color="rgb(132,80,186)" stop-opacity="1"/><stop offset="1" stop-color="rgb(132,80,186)" stop-opacity="1"/></linearGradient><linearGradient id="dgkgkeVfbvEJ" x1="1303.0000007152557px" x2="578px" y1="474.50000071525574px" y2="2134.733340962727px" gradientUnits="userSpaceOnUse"><stop offset="0" stop-color="rgb(255,193,7)" stop-opacity="1"/><stop offset="1" stop-color="rgb(132,80,186)" stop-opacity="1"/></linearGradient><linearGradient id="cgcTByRgmWtk" x1="1303.0000007152557px" x2="578px" y1="474.50000071525574px" y2="2134.733340962727px" gradientUnits="userSpaceOnUse"><stop offset="0" stop-color="rgb(255,193,7)" stop-opacity="1"/><stop offset="1" stop-color="rgb(132,80,186)" stop-opacity="1"/></linearGradient><linearGradient id="XUWEOJDyCgDt" x1="1303.0000007152557px" x2="578px" y1="607.5000014305115px" y2="2134.733340962727px" gradientUnits="userSpaceOnUse"><stop offset="0" stop-color="rgb(255,193,7)" stop-opacity="1"/><stop offset="1" stop-color="rgb(132,80,186)" stop-opacity="1"/></linearGradient><linearGradient id="FAhkLbZZAHir" x1="1303.0000007152557px" x2="578px" y1="607.5000014305115px" y2="2134.733340962727px" gradientUnits="userSpaceOnUse"><stop offset="0" stop-color="rgb(255,193,7)" stop-opacity="1"/><stop offset="1" stop-color="rgb(132,80,186)" stop-opacity="1"/></linearGradient><linearGradient id="TOLNIHDouyXv" x1="1303.0000007152557px" x2="578px" y1="740.5000021457672px" y2="2134.733340962727px" gradientUnits="userSpaceOnUse"><stop offset="0" stop-color="rgb(255,193,7)" stop-opacity="1"/><stop offset="1" stop-color="rgb(132,80,186)" stop-opacity="1"/></linearGradient><linearGradient id="pOuPEdsEmyOd" x1="1303.0000007152557px" x2="578px" y1="740.5000021457672px" y2="2134.733340962727px" gradientUnits="userSpaceOnUse"><stop offset="0" stop-color="rgb(255,193,7)" stop-opacity="1"/><stop offset="1" stop-color="rgb(132,80,186)" stop-opacity="1"/></linearGradient><linearGradient id="TrLBmsTRHXFb" x1="1303.0000007152557px" x2="578px" y1="341.5px" y2="2134.733340962727px" gradientUnits="userSpaceOnUse"><stop offset="0" stop-color="rgb(255,193,7)" stop-opacity="1"/><stop offset="1" stop-color="rgb(132,80,186)" stop-opacity="1"/></linearGradient><linearGradient id="eZLVoSKWaoVR" x1="1303.0000007152557px" x2="578px" y1="341.5px" y2="2134.733340962727px" gradientUnits="userSpaceOnUse"><stop offset="0" stop-color="rgb(255,193,7)" stop-opacity="1"/><stop offset="1" stop-color="rgb(132,80,186)" stop-opacity="1"/></linearGradient><linearGradient id="TcxAttqkZUAN" x1="578px" x2="2306.0000014305115px" y1="2134.733340962727px" y2="740.5000021457672px" gradientUnits="userSpaceOnUse"><stop offset="0" stop-color="rgb(132,80,186)" stop-opacity="1"/><stop offset="1" stop-color="rgb(0,0,0)" stop-opacity="1"/></linearGradient><linearGradient id="krqqvuPVQMUl" x1="578px" x2="2306.0000014305115px" y1="2134.733340962727px" y2="607.5000014305115px" gradientUnits="userSpaceOnUse"><stop offset="0" stop-color="rgb(132,80,186)" stop-opacity="1"/><stop offset="1" stop-color="rgb(0,0,0)" stop-opacity="1"/></linearGradient><linearGradient id="GdDpSPUtIupL" x1="2671.699999642372px" x2="2306.0000014305115px" y1="1867.2333395322162px" y2="1006.5000035762787px" gradientUnits="userSpaceOnUse"><stop offset="0" stop-color="rgb(132,80,186)" stop-opacity="1"/><stop offset="1" stop-color="rgb(0,0,0)" stop-opacity="1"/></linearGradient><linearGradient id="OtCrgFNszUuK" x1="2671.699999642372px" x2="2306.0000014305115px" y1="1867.2333395322162px" y2="1139.5000042915344px" gradientUnits="userSpaceOnUse"><stop offset="0" stop-color="rgb(132,80,186)" stop-opacity="1"/><stop offset="1" stop-color="rgb(0,0,0)" stop-opacity="1"/></linearGradient><linearGradient id="ieBzRspTFMRg" x1="2671.699999642372px" x2="2306.0000014305115px" y1="1867.2333395322162px" y2="1272.5000050067902px" gradientUnits="userSpaceOnUse"><stop offset="0" stop-color="rgb(132,80,186)" stop-opacity="1"/><stop offset="1" stop-color="rgb(0,0,0)" stop-opacity="1"/></linearGradient><linearGradient id="DNnoWmZANeSt" x1="2671.699999642372px" x2="2306.0000014305115px" y1="1867.2333395322162px" y2="873.500002861023px" gradientUnits="userSpaceOnUse"><stop offset="0" stop-color="rgb(132,80,186)" stop-opacity="1"/><stop offset="1" stop-color="rgb(0,0,0)" stop-opacity="1"/></linearGradient><linearGradient id="hQqWumiNZlhS" x1="2368.699999284744px" x2="2921.2px" y1="2117.733339532216px" y2="2217.733339532216px" gradientUnits="userSpaceOnUse"><stop offset="0" stop-color="rgb(255,193,7)" stop-opacity="1"/><stop offset="1" stop-color="rgb(211,211,211)" stop-opacity="1"/></linearGradient><linearGradient id="RNgGnfVzynTO" x1="3195.2px" x2="2092.199999284744px" y1="2256.733339532216px" y2="3203.433342393239px" gradientUnits="userSpaceOnUse"><stop offset="0" stop-color="rgb(211,211,211)" stop-opacity="1"/><stop offset="1" stop-color="rgb(29,122,218)" stop-opacity="1"/></linearGradient><linearGradient id="fHBVINDSylZA" x1="3195.2px" x2="2092.199999284744px" y1="2256.733339532216px" y2="3336.4333431084947px" gradientUnits="userSpaceOnUse"><stop offset="0" stop-color="rgb(211,211,211)" stop-opacity="1"/><stop offset="1" stop-color="rgb(29,122,218)" stop-opacity="1"/></linearGradient><linearGradient id="TeOWMpTwbLLc" x1="3195.2px" x2="2092.199999284744px" y1="2256.733339532216px" y2="3735.433345254262px" gradientUnits="userSpaceOnUse"><stop offset="0" stop-color="rgb(211,211,211)" stop-opacity="1"/><stop offset="1" stop-color="rgb(29,122,218)" stop-opacity="1"/></linearGradient><linearGradient id="UcfpTPVtXdKQ" x1="3195.2px" x2="2092.199999284744px" y1="2256.733339532216px" y2="3469.4333438237504px" gradientUnits="userSpaceOnUse"><stop offset="0" stop-color="rgb(211,211,211)" stop-opacity="1"/><stop offset="1" stop-color="rgb(29,122,218)" stop-opacity="1"/></linearGradient><linearGradient id="EBDiVMeOvXfk" x1="2921.2px" x2="2368.699999284744px" y1="2217.733339532216px" y2="2845.9333402474717px" gradientUnits="userSpaceOnUse"><stop offset="0" stop-color="rgb(211,211,211)" stop-opacity="1"/><stop offset="1" stop-color="rgb(29,122,218)" stop-opacity="1"/></linearGradient><linearGradient id="lTdACXzMyvJD" x1="3195.2px" x2="2092.199999284744px" y1="2256.733339532216px" y2="2937.4333409627275px" gradientUnits="userSpaceOnUse"><stop offset="0" stop-color="rgb(211,211,211)" stop-opacity="1"/><stop offset="1" stop-color="rgb(29,122,218)" stop-opacity="1"/></linearGradient><linearGradient id="nkDpheAAEsBT" x1="3195.2px" x2="2092.199999284744px" y1="2256.733339532216px" y2="3070.433341677983px" gradientUnits="userSpaceOnUse"><stop offset="0" stop-color="rgb(211,211,211)" stop-opacity="1"/><stop offset="1" stop-color="rgb(29,122,218)" stop-opacity="1"/></linearGradient><linearGradient id="RBmphIZFpxUF" x1="3195.2px" x2="2092.199999284744px" y1="2256.733339532216px" y2="3602.433344539006px" gradientUnits="userSpaceOnUse"><stop offset="0" stop-color="rgb(211,211,211)" stop-opacity="1"/><stop offset="1" stop-color="rgb(29,122,218)" stop-opacity="1"/></linearGradient><linearGradient id="RNxaFGlsXdTM" x1="3195.2px" x2="2092.199999284744px" y1="2256.733339532216px" y2="3868.4333459695176px" gradientUnits="userSpaceOnUse"><stop offset="0" stop-color="rgb(211,211,211)" stop-opacity="1"/><stop offset="1" stop-color="rgb(29,122,218)" stop-opacity="1"/></linearGradient><linearGradient id="HGmpTUGoMHGC" x1="4046.399999284744px" x2="2582.5000014305115px" y1="3089.9500096559523px" y2="433.00000071525574px" gradientUnits="userSpaceOnUse"><stop offset="0" stop-color="rgb(132,80,186)" stop-opacity="1"/><stop offset="1" stop-color="rgb(0,0,0)" stop-opacity="1"/></linearGradient><linearGradient id="VTTkgVgTeLwF" x1="4046.399999284744px" x2="2582.5000014305115px" y1="3089.9500096559523px" y2="300px" gradientUnits="userSpaceOnUse"><stop offset="0" stop-color="rgb(132,80,186)" stop-opacity="1"/><stop offset="1" stop-color="rgb(0,0,0)" stop-opacity="1"/></linearGradient><linearGradient id="BgkTXsWZGHkB" x1="5790.4px" x2="4687.399999284744px" y1="2431.2000064373015px" y2="3111.900007867813px" gradientUnits="userSpaceOnUse"><stop offset="0" stop-color="rgb(211,211,211)" stop-opacity="1"/><stop offset="1" stop-color="rgb(29,122,218)" stop-opacity="1"/></linearGradient><linearGradient id="KVqJJlOdDHxA" x1="5790.4px" x2="5790.4px" y1="2353.2000064373015px" y2="2103.000005722046px" gradientUnits="userSpaceOnUse"><stop offset="0" stop-color="rgb(211,211,211)" stop-opacity="1"/><stop offset="1" stop-color="rgb(211,211,211)" stop-opacity="1"/></linearGradient><linearGradient id="TezuzHIpKrlk" x1="5790.4px" x2="4687.399999284744px" y1="2103.000005722046px" y2="3909.9000121593476px" gradientUnits="userSpaceOnUse"><stop offset="0" stop-color="rgb(211,211,211)" stop-opacity="1"/><stop offset="1" stop-color="rgb(29,122,218)" stop-opacity="1"/></linearGradient><linearGradient id="OwOPitpRhMXm" x1="5790.4px" x2="4687.399999284744px" y1="2103.000005722046px" y2="3244.900008583069px" gradientUnits="userSpaceOnUse"><stop offset="0" stop-color="rgb(211,211,211)" stop-opacity="1"/><stop offset="1" stop-color="rgb(29,122,218)" stop-opacity="1"/></linearGradient><linearGradient id="GoMsGRLwKTDF" x1="5790.4px" x2="4687.399999284744px" y1="2103.000005722046px" y2="3510.9000100135804px" gradientUnits="userSpaceOnUse"><stop offset="0" stop-color="rgb(211,211,211)" stop-opacity="1"/><stop offset="1" stop-color="rgb(29,122,218)" stop-opacity="1"/></linearGradient><linearGradient id="ANZUZGHPAaKE" x1="5790.4px" x2="4687.399999284744px" y1="2103.000005722046px" y2="4175.900013589859px" gradientUnits="userSpaceOnUse"><stop offset="0" stop-color="rgb(211,211,211)" stop-opacity="1"/><stop offset="1" stop-color="rgb(29,122,218)" stop-opacity="1"/></linearGradient><linearGradient id="RXbEwFFRnUbd" x1="5790.4px" x2="4687.399999284744px" y1="2103.000005722046px" y2="3377.9000092983247px" gradientUnits="userSpaceOnUse"><stop offset="0" stop-color="rgb(211,211,211)" stop-opacity="1"/><stop offset="1" stop-color="rgb(29,122,218)" stop-opacity="1"/></linearGradient><linearGradient id="NrGcTSvCwdCX" x1="5790.4px" x2="4687.399999284744px" y1="2103.000005722046px" y2="4042.9000128746034px" gradientUnits="userSpaceOnUse"><stop offset="0" stop-color="rgb(211,211,211)" stop-opacity="1"/><stop offset="1" stop-color="rgb(29,122,218)" stop-opacity="1"/></linearGradient><linearGradient id="IzpWxgrNhUUe" x1="5790.4px" x2="4687.399999284744px" y1="2103.000005722046px" y2="3643.900010728836px" gradientUnits="userSpaceOnUse"><stop offset="0" stop-color="rgb(211,211,211)" stop-opacity="1"/><stop offset="1" stop-color="rgb(29,122,218)" stop-opacity="1"/></linearGradient><linearGradient id="EtfepaKcuDRe" x1="5790.4px" x2="4687.399999284744px" y1="2103.000005722046px" y2="2978.9000071525575px" gradientUnits="userSpaceOnUse"><stop offset="0" stop-color="rgb(211,211,211)" stop-opacity="1"/><stop offset="1" stop-color="rgb(29,122,218)" stop-opacity="1"/></linearGradient><linearGradient id="BQPoguddHErl" x1="4963.899999284744px" x2="5516.4px" y1="2097.0000064373016px" y2="2392.2000064373015px" gradientUnits="userSpaceOnUse"><stop offset="0" stop-color="rgb(255,193,7)" stop-opacity="1"/><stop offset="1" stop-color="rgb(211,211,211)" stop-opacity="1"/></linearGradient><linearGradient id="CCbJaNJwqyrh" x1="4963.899999284744px" x2="5516.4px" y1="2230.0000071525574px" y2="2064.000005722046px" gradientUnits="userSpaceOnUse"><stop offset="0" stop-color="rgb(255,193,7)" stop-opacity="1"/><stop offset="1" stop-color="rgb(211,211,211)" stop-opacity="1"/></linearGradient></defs><g transform="translate(57.7,9.200000000000001) scale(0.2,0.2)"><path fill="rgb(244,236,255)" stroke="rgb(255,255,255)" paint-order="fill stroke markers" d=" M 3173.2 -44 L 6624.9 -44 L 6624.9 -44 A 8 8 0 0 1 6632.9 -36 L 6632.9 4760.900013589859 L 6632.9 4760.900013589859 A 8 8 0 0 1 6624.9 4768.900013589859 L -278.5 4768.900013589859 L -278.5 4768.900013589859 A 8 8 0 0 1 -286.5 4760.900013589859 L -286.5 -36 L -286.5 -36 A 8 8 0 0 1 -278.5 -44 L 3173.2 -44 Z" fill-opacity="1" stroke-opacity="1" stroke-miterlimit="10" stroke-width="2"/><text fill="rgb(0,0,0)" stroke="none" font-family="Avenir, Helvetica, Arial, sans-serif" font-size="32px" font-style="normal" font-weight="bold" text-decoration="normal" x="3173.2" y="31" text-anchor="middle" dominant-baseline="text-after-edge" fill-opacity="1">.</text><path fill="rgb(255,255,255)" stroke="rgb(211,211,211)" paint-order="fill stroke markers" d=" M 1303.0000007152557 157.5 L 1672.5000007152557 157.5 L 1672.5000007152557 157.5 A 8 8 0 0 1 1680.5000007152557 165.5 L 1680.5000007152557 833.5000021457672 L 1680.5000007152557 833.5000021457672 A 8 8 0 0 1 1672.5000007152557 841.5000021457672 L 933.5000007152557 841.5000021457672 L 933.5000007152557 841.5000021457672 A 8 8 0 0 1 925.5000007152557 833.5000021457672 L 925.5000007152557 165.5 L 925.5000007152557 165.5 A 8 8 0 0 1 933.5000007152557 157.5 L 1303.0000007152557 157.5 Z" fill-opacity="1" stroke-opacity="1" stroke-miterlimit="10"/><text fill="rgb(0,0,0)" stroke="none" font-family="Avenir, Helvetica, Arial, sans-serif" font-size="32px" font-style="normal" font-weight="bold" text-decoration="normal" x="1303.0000007152557" y="232.5" text-anchor="middle" dominant-baseline="text-after-edge" fill-opacity="1">outputs.tf</text><path fill="rgb(255,255,255)" stroke="rgb(211,211,211)" paint-order="fill stroke markers" d=" M 300 157.5 L 669.5 157.5 L 669.5 157.5 A 8 8 0 0 1 677.5 165.5 L 677.5 434.5 L 677.5 434.5 A 8 8 0 0 1 669.5 442.5 L -69.5 442.5 L -69.5 442.5 A 8 8 0 0 1 -77.5 434.5 L -77.5 165.5 L -77.5 165.5 A 8 8 0 0 1 -69.5 157.5 L 300 157.5 Z" fill-opacity="1" stroke-opacity="1" stroke-miterlimit="10"/><text fill="rgb(0,0,0)" stroke="none" font-family="Avenir, Helvetica, Arial, sans-serif" font-size="32px" font-style="normal" font-weight="bold" text-decoration="normal" x="300" y="232.5" text-anchor="middle" dominant-baseline="text-after-edge" fill-opacity="1">variables.tf</text><path fill="rgb(255,255,255)" stroke="rgb(211,211,211)" paint-order="fill stroke markers" d=" M 3173.2 1612.500005722046 L 6423.4 1612.500005722046 L 6423.4 1612.500005722046 A 8 8 0 0 1 6431.4 1620.500005722046 L 6431.4 4559.400013589859 L 6431.4 4559.400013589859 A 8 8 0 0 1 6423.4 4567.400013589859 L -77 4567.400013589859 L -77 4567.400013589859 A 8 8 0 0 1 -85 4559.400013589859 L -85 1620.500005722046 L -85 1620.500005722046 A 8 8 0 0 1 -77 1612.500005722046 L 3173.2 1612.500005722046 Z" fill-opacity="1" stroke-opacity="1" stroke-miterlimit="10"/><text fill="rgb(0,0,0)" stroke="none" font-family="Avenir, Helvetica, Arial, sans-serif" font-size="32px" font-style="normal" font-weight="bold" text-decoration="normal" x="3173.2" y="1687.500005722046" text-anchor="middle" dominant-baseline="text-after-edge" fill-opacity="1">main.tf</text><path fill="rgb(255,255,255)" stroke="rgb(211,211,211)" paint-order="fill stroke markers" d=" M 2306.0000014305115 157.5 L 2675.5000014305115 157.5 L 2675.5000014305115 157.5 A 8 8 0 0 1 2683.5000014305115 165.5 L 2683.5000014305115 1365.5000050067902 L 2683.5000014305115 1365.5000050067902 A 8 8 0 0 1 2675.5000014305115 1373.5000050067902 L 1936.5000014305115 1373.5000050067902 L 1936.5000014305115 1373.5000050067902 A 8 8 0 0 1 1928.5000014305115 1365.5000050067902 L 1928.5000014305115 165.5 L 1928.5000014305115 165.5 A 8 8 0 0 1 1936.5000014305115 157.5 L 2306.0000014305115 157.5 Z" fill-opacity="1" stroke-opacity="1" stroke-miterlimit="10"/><text fill="rgb(0,0,0)" stroke="none" font-family="Avenir, Helvetica, Arial, sans-serif" font-size="32px" font-style="normal" font-weight="bold" text-decoration="normal" x="2306.0000014305115" y="232.5" text-anchor="middle" dominant-baseline="text-after-edge" fill-opacity="1">unknown file</text><path fill="none" stroke="url(#AgOqGNQWauBm)" paint-order="fill stroke markers" d=" M 1140 2861.233342035611 L 1374.099999642372 2861.233342035611 L 1374.099999642372 3013.083342750867 L 1608.199999284744 3013.083342750867" stroke-linejoin="round" stroke-miterlimit="10" stroke-width="10"/><path fill="none" stroke="url(#LpQkouaHECTR)" paint-order="fill stroke markers" d=" M 1140 2861.233342035611 L 1374.099999642372 2861.233342035611 L 1374.099999642372 3013.083342750867 L 1608.199999284744 3013.083342750867" stroke-linejoin="round" stroke-miterlimit="10" stroke-width="10"/><path fill="none" stroke="url(#hGpivTZqfTcD)" paint-order="fill stroke markers" d=" M 3735.2 3013.083342750867 L 3890.799999642372 3013.083342750867 L 3890.799999642372 3089.9500096559523 L 4046.399999284744 3089.9500096559523" stroke-linejoin="round" stroke-miterlimit="10" stroke-width="10"/><path fill="none" stroke="url(#WInNbwWtixlT)" paint-order="fill stroke markers" d=" M 3735.2 3013.083342750867 L 3890.799999642372 3013.083342750867 L 3890.799999642372 3089.9500096559523 L 4046.399999284744 3089.9500096559523" stroke-linejoin="round" stroke-miterlimit="10" stroke-width="10"/><path fill="rgb(255,255,255)" stroke="rgb(132,80,186)" paint-order="fill stroke markers" d=" M 578 2139.733340962727 L 1127 2139.733340962727 L 1127 2139.733340962727 A 8 8 0 0 1 1135 2147.733340962727 L 1135 3574.7333431084944 L 1135 3574.7333431084944 A 8 8 0 0 1 1127 3582.7333431084944 L 29 3582.7333431084944 L 29 3582.7333431084944 A 8 8 0 0 1 21 3574.7333431084944 L 21 2147.733340962727 L 21 2147.733340962727 A 8 8 0 0 1 29 2139.733340962727 L 578 2139.733340962727 Z" fill-opacity="1" stroke-opacity="1" stroke-miterlimit="10" stroke-width="10"/><text fill="rgb(132,80,186)" stroke="none" font-family="Avenir, Helvetica, Arial, sans-serif" font-size="32px" font-style="normal" font-weight="bold" text-decoration="normal" x="578" y="2199.733340962727" text-anchor="middle" dominant-baseline="text-after-edge" fill-opacity="1">tfe_registry</text><path fill="rgb(255,255,255)" stroke="rgb(132,80,186)" paint-order="fill stroke markers" d=" M 2671.699999642372 1872.2333395322162 L 3722.2 1872.2333395322162 L 3722.2 1872.2333395322162 A 8 8 0 0 1 3730.2 1880.2333395322162 L 3730.2 4145.933345969517 L 3730.2 4145.933345969517 A 8 8 0 0 1 3722.2 4153.933345969517 L 1621.199999284744 4153.933345969517 L 1621.199999284744 4153.933345969517 A 8 8 0 0 1 1613.199999284744 4145.933345969517 L 1613.199999284744 1880.2333395322162 L 1613.199999284744 1880.2333395322162 A 8 8 0 0 1 1621.199999284744 1872.2333395322162 L 2671.699999642372 1872.2333395322162 Z" fill-opacity="1" stroke-opacity="1" stroke-miterlimit="10" stroke-width="10"/><text fill="rgb(132,80,186)" stroke="none" font-family="Avenir, Helvetica, Arial, sans-serif" font-size="32px" font-style="normal" font-weight="bold" text-decoration="normal" x="2671.699999642372" y="1932.2333395322162" text-anchor="middle" dominant-baseline="text-after-edge" fill-opacity="1">tfe_oauth_client</text><path fill="rgb(255,255,255)" stroke="rgb(132,80,186)" paint-order="fill stroke markers" d=" M 5188.399999642372 1718.500005722046 L 6317.4 1718.500005722046 L 6317.4 1718.500005722046 A 8 8 0 0 1 6325.4 1726.500005722046 L 6325.4 4453.400013589859 L 6325.4 4453.400013589859 A 8 8 0 0 1 6317.4 4461.400013589859 L 4059.399999284744 4461.400013589859 L 4059.399999284744 4461.400013589859 A 8 8 0 0 1 4051.399999284744 4453.400013589859 L 4051.399999284744 1726.500005722046 L 4051.399999284744 1726.500005722046 A 8 8 0 0 1 4059.399999284744 1718.500005722046 L 5188.399999642372 1718.500005722046 Z" fill-opacity="1" stroke-opacity="1" stroke-miterlimit="10" stroke-width="10"/><text fill="rgb(132,80,186)" stroke="none" font-family="Avenir, Helvetica, Arial, sans-serif" font-size="32px" font-style="normal" font-weight="bold" text-decoration="normal" x="5188.399999642372" y="1778.500005722046" text-anchor="middle" dominant-baseline="text-after-edge" fill-opacity="1">tfe_organization</text><path fill="rgb(255,255,255)" stroke="rgb(211,211,211)" paint-order="fill stroke markers" d=" M 500 2241.233340962727 L 869.5 2241.233340962727 L 869.5 2241.233340962727 A 8 8 0 0 1 877.5 2249.233340962727 L 877.5 2784.2333423932387 L 877.5 2784.2333423932387 A 8 8 0 0 1 869.5 2792.2333423932387 L 130.5 2792.2333423932387 L 130.5 2792.2333423932387 A 8 8 0 0 1 122.5 2784.2333423932387 L 122.5 2249.233340962727 L 122.5 2249.233340962727 A 8 8 0 0 1 130.5 2241.233340962727 L 500 2241.233340962727 Z" fill-opacity="1" stroke-opacity="1" stroke-miterlimit="10"/><text fill="rgb(0,0,0)" stroke="none" font-family="Avenir, Helvetica, Arial, sans-serif" font-size="32px" font-style="normal" font-weight="bold" text-decoration="normal" x="500" y="2316.233340962727" text-anchor="middle" dominant-baseline="text-after-edge" fill-opacity="1">variables.tf</text><path fill="rgb(255,255,255)" stroke="rgb(211,211,211)" paint-order="fill stroke markers" d=" M 600 3038.7333431084944 L 1025.5 3038.7333431084944 L 1025.5 3038.7333431084944 A 8 8 0 0 1 1033.5 3046.7333431084944 L 1033.5 3473.2333431084944 L 1033.5 3473.2333431084944 A 8 8 0 0 1 1025.5 3481.2333431084944 L 174.5 3481.2333431084944 L 174.5 3481.2333431084944 A 8 8 0 0 1 166.5 3473.2333431084944 L 166.5 3046.7333431084944 L 166.5 3046.7333431084944 A 8 8 0 0 1 174.5 3038.7333431084944 L 600 3038.7333431084944 Z" fill-opacity="1" stroke-opacity="1" stroke-miterlimit="10"/><text fill="rgb(0,0,0)" stroke="none" font-family="Avenir, Helvetica, Arial, sans-serif" font-size="32px" font-style="normal" font-weight="bold" text-decoration="normal" x="600" y="3113.7333431084944" text-anchor="middle" dominant-baseline="text-after-edge" fill-opacity="1">main.tf</text><path fill="rgb(255,255,255)" stroke="rgb(211,211,211)" paint-order="fill stroke markers" d=" M 2092.199999284744 1975.2333395322162 L 2461.699999284744 1975.2333395322162 L 2461.699999284744 1975.2333395322162 A 8 8 0 0 1 2469.699999284744 1983.2333395322162 L 2469.699999284744 2252.233339532216 L 2469.699999284744 2252.233339532216 A 8 8 0 0 1 2461.699999284744 2260.233339532216 L 1722.699999284744 2260.233339532216 L 1722.699999284744 2260.233339532216 A 8 8 0 0 1 1714.699999284744 2252.233339532216 L 1714.699999284744 1983.2333395322162 L 1714.699999284744 1983.2333395322162 A 8 8 0 0 1 1722.699999284744 1975.2333395322162 L 2092.199999284744 1975.2333395322162 Z" fill-opacity="1" stroke-opacity="1" stroke-miterlimit="10"/><text fill="rgb(0,0,0)" stroke="none" font-family="Avenir, Helvetica, Arial, sans-serif" font-size="32px" font-style="normal" font-weight="bold" text-decoration="normal" x="2092.199999284744" y="2050.233339532216" text-anchor="middle" dominant-baseline="text-after-edge" fill-opacity="1">outputs.tf</text><path fill="rgb(255,255,255)" stroke="rgb(211,211,211)" paint-order="fill stroke markers" d=" M 2092.199999284744 2703.4333402474717 L 2461.699999284744 2703.4333402474717 L 2461.699999284744 2703.4333402474717 A 8 8 0 0 1 2469.699999284744 2711.4333402474717 L 2469.699999284744 4044.4333459695176 L 2469.699999284744 4044.4333459695176 A 8 8 0 0 1 2461.699999284744 4052.4333459695176 L 1722.699999284744 4052.4333459695176 L 1722.699999284744 4052.4333459695176 A 8 8 0 0 1 1714.699999284744 4044.4333459695176 L 1714.699999284744 2711.4333402474717 L 1714.699999284744 2711.4333402474717 A 8 8 0 0 1 1722.699999284744 2703.4333402474717 L 2092.199999284744 2703.4333402474717 Z" fill-opacity="1" stroke-opacity="1" stroke-miterlimit="10"/><text fill="rgb(0,0,0)" stroke="none" font-family="Avenir, Helvetica, Arial, sans-serif" font-size="32px" font-style="normal" font-weight="bold" text-decoration="normal" x="2092.199999284744" y="2778.4333402474717" text-anchor="middle" dominant-baseline="text-after-edge" fill-opacity="1">variables.tf</text><path fill="rgb(255,255,255)" stroke="rgb(211,211,211)" paint-order="fill stroke markers" d=" M 3195.2 1973.7333395322162 L 3620.7 1973.7333395322162 L 3620.7 1973.7333395322162 A 8 8 0 0 1 3628.7 1981.7333395322162 L 3628.7 2408.233339532216 L 3628.7 2408.233339532216 A 8 8 0 0 1 3620.7 2416.233339532216 L 2769.7 2416.233339532216 L 2769.7 2416.233339532216 A 8 8 0 0 1 2761.7 2408.233339532216 L 2761.7 1981.7333395322162 L 2761.7 1981.7333395322162 A 8 8 0 0 1 2769.7 1973.7333395322162 L 3195.2 1973.7333395322162 Z" fill-opacity="1" stroke-opacity="1" stroke-miterlimit="10"/><text fill="rgb(0,0,0)" stroke="none" font-family="Avenir, Helvetica, Arial, sans-serif" font-size="32px" font-style="normal" font-weight="bold" text-decoration="normal" x="3195.2" y="2048.733339532216" text-anchor="middle" dominant-baseline="text-after-edge" fill-opacity="1">main.tf</text><path fill="rgb(255,255,255)" stroke="rgb(211,211,211)" paint-order="fill stroke markers" d=" M 4687.399999284744 1821.500005722046 L 5056.899999284744 1821.500005722046 L 5056.899999284744 1821.500005722046 A 8 8 0 0 1 5064.899999284744 1829.500005722046 L 5064.899999284744 2364.5000071525574 L 5064.899999284744 2364.5000071525574 A 8 8 0 0 1 5056.899999284744 2372.5000071525574 L 4317.899999284744 2372.5000071525574 L 4317.899999284744 2372.5000071525574 A 8 8 0 0 1 4309.899999284744 2364.5000071525574 L 4309.899999284744 1829.500005722046 L 4309.899999284744 1829.500005722046 A 8 8 0 0 1 4317.899999284744 1821.500005722046 L 4687.399999284744 1821.500005722046 Z" fill-opacity="1" stroke-opacity="1" stroke-miterlimit="10"/><text fill="rgb(0,0,0)" stroke="none" font-family="Avenir, Helvetica, Arial, sans-serif" font-size="32px" font-style="normal" font-weight="bold" text-decoration="normal" x="4687.399999284744" y="1896.500005722046" text-anchor="middle" dominant-baseline="text-after-edge" fill-opacity="1">outputs.tf</text><path fill="rgb(255,255,255)" stroke="rgb(211,211,211)" paint-order="fill stroke markers" d=" M 4687.399999284744 2877.900007152557 L 5213.899999284744 2877.900007152557 L 5213.899999284744 2877.900007152557 A 8 8 0 0 1 5221.899999284744 2885.900007152557 L 5221.899999284744 4351.900013589859 L 5221.899999284744 4351.900013589859 A 8 8 0 0 1 5213.899999284744 4359.900013589859 L 4160.899999284744 4359.900013589859 L 4160.899999284744 4359.900013589859 A 8 8 0 0 1 4152.899999284744 4351.900013589859 L 4152.899999284744 2885.900007152557 L 4152.899999284744 2885.900007152557 A 8 8 0 0 1 4160.899999284744 2877.900007152557 L 4687.399999284744 2877.900007152557 Z" fill-opacity="1" stroke-opacity="1" stroke-miterlimit="10"/><text fill="rgb(0,0,0)" stroke="none" font-family="Avenir, Helvetica, Arial, sans-serif" font-size="32px" font-style="normal" font-weight="bold" text-decoration="normal" x="4687.399999284744" y="2952.900007152557" text-anchor="middle" dominant-baseline="text-after-edge" fill-opacity="1">variables.tf</text><path fill="rgb(255,255,255)" stroke="rgb(211,211,211)" paint-order="fill stroke markers" d=" M 5790.4 1820.000005722046 L 6215.9 1820.000005722046 L 6215.9 1820.000005722046 A 8 8 0 0 1 6223.9 1828.000005722046 L 6223.9 2582.7000064373015 L 6223.9 2582.7000064373015 A 8 8 0 0 1 6215.9 2590.7000064373015 L 5364.9 2590.7000064373015 L 5364.9 2590.7000064373015 A 8 8 0 0 1 5356.9 2582.7000064373015 L 5356.9 1828.000005722046 L 5356.9 1828.000005722046 A 8 8 0 0 1 5364.9 1820.000005722046 L 5790.4 1820.000005722046 Z" fill-opacity="1" stroke-opacity="1" stroke-miterlimit="10"/><text fill="rgb(0,0,0)" stroke="none" font-family="Avenir, Helvetica, Arial, sans-serif" font-size="32px" font-style="normal" font-weight="bold" text-decoration="normal" x="5790.4" y="1895.000005722046" text-anchor="middle" dominant-baseline="text-after-edge" fill-opacity="1">main.tf</text><path fill="rgb(255,255,255)" stroke="rgb(0,0,0)" paint-order="fill stroke markers" d=" M 600 3187.7333431084944 L 922 3187.7333431084944 L 922 3187.7333431084944 A 8 8 0 0 1 930 3195.7333431084944 L 930 3369.7333431084944 L 930 3369.7333431084944 A 8 8 0 0 1 922 3377.7333431084944 L 278 3377.7333431084944 L 278 3377.7333431084944 A 8 8 0 0 1 270 3369.7333431084944 L 270 3195.7333431084944 L 270 3195.7333431084944 A 8 8 0 0 1 278 3187.7333431084944 L 600 3187.7333431084944 Z" fill-opacity="1" stroke-opacity="1" stroke-miterlimit="10" stroke-width="5"/><rect fill="rgb(255,255,255)" stroke="none" x="417.5" y="3138.7333431084944" width="365" height="96" fill-opacity="1"/><text fill="rgb(0,0,0)" stroke="none" font-family="Avenir, Helvetica, Arial, sans-serif" font-size="32px" font-style="normal" font-weight="bold" text-decoration="normal" x="600" y="3202.7333431084944" text-anchor="middle" dominant-baseline="text-after-edge" fill-opacity="1">tfe_registry_module</text><path fill="rgb(255,255,255)" stroke="rgb(0,0,0)" paint-order="fill stroke markers" d=" M 3195.2 2122.733339532216 L 3517.2 2122.733339532216 L 3517.2 2122.733339532216 A 8 8 0 0 1 3525.2 2130.733339532216 L 3525.2 2304.733339532216 L 3525.2 2304.733339532216 A 8 8 0 0 1 3517.2 2312.733339532216 L 2873.2 2312.733339532216 L 2873.2 2312.733339532216 A 8 8 0 0 1 2865.2 2304.733339532216 L 2865.2 2130.733339532216 L 2865.2 2130.733339532216 A 8 8 0 0 1 2873.2 2122.733339532216 L 3195.2 2122.733339532216 Z" fill-opacity="1" stroke-opacity="1" stroke-miterlimit="10" stroke-width="5"/><rect fill="rgb(255,255,255)" stroke="none" x="3042.7" y="2073.733339532216" width="305" height="96" fill-opacity="1"/><text fill="rgb(0,0,0)" stroke="none" font-family="Avenir, Helvetica, Arial, sans-serif" font-size="32px" font-style="normal" font-weight="bold" text-decoration="normal" x="3195.2" y="2137.733339532216" text-anchor="middle" dominant-baseline="text-after-edge" fill-opacity="1">tfe_oauth_client</text><path fill="rgb(255,255,255)" stroke="rgb(0,0,0)" paint-order="fill stroke markers" d=" M 5790.4 1969.000005722046 L 6112.4 1969.000005722046 L 6112.4 1969.000005722046 A 8 8 0 0 1 6120.4 1977.000005722046 L 6120.4 2151.000005722046 L 6120.4 2151.000005722046 A 8 8 0 0 1 6112.4 2159.000005722046 L 5468.4 2159.000005722046 L 5468.4 2159.000005722046 A 8 8 0 0 1 5460.4 2151.000005722046 L 5460.4 1977.000005722046 L 5460.4 1977.000005722046 A 8 8 0 0 1 5468.4 1969.000005722046 L 5790.4 1969.000005722046 Z" fill-opacity="1" stroke-opacity="1" stroke-miterlimit="10" stroke-width="5"/><rect fill="rgb(255,255,255)" stroke="none" x="5635.9" y="1920.000005722046" width="309" height="96" fill-opacity="1"/><text fill="rgb(0,0,0)" stroke="none" font-family="Avenir, Helvetica, Arial, sans-serif" font-size="32px" font-style="normal" font-weight="bold" text-decoration="normal" x="5790.4" y="1984.000005722046" text-anchor="middle" dominant-baseline="text-after-edge" fill-opacity="1">tfe_organization</text><path fill="rgb(255,255,255)" stroke="rgb(0,0,0)" paint-order="fill stroke markers" d=" M 5790.4 2297.2000064373015 L 6112.4 2297.2000064373015 L 6112.4 2297.2000064373015 A 8 8 0 0 1 6120.4 2305.2000064373015 L 6120.4 2479.2000064373015 L 6120.4 2479.2000064373015 A 8 8 0 0 1 6112.4 2487.2000064373015 L 5468.4 2487.2000064373015 L 5468.4 2487.2000064373015 A 8 8 0 0 1 5460.4 2479.2000064373015 L 5460.4 2305.2000064373015 L 5460.4 2305.2000064373015 A 8 8 0 0 1 5468.4 2297.2000064373015 L 5790.4 2297.2000064373015 Z" fill-opacity="1" stroke-opacity="1" stroke-miterlimit="10" stroke-width="5"/><rect fill="rgb(255,255,255)" stroke="none" x="5584.9" y="2248.2000064373015" width="411" height="96" fill-opacity="1"/><text fill="rgb(0,0,0)" stroke="none" font-family="Avenir, Helvetica, Arial, sans-serif" font-size="32px" font-style="normal" font-weight="bold" text-decoration="normal" x="5790.4" y="2312.2000064373015" text-anchor="middle" dominant-baseline="text-after-edge" fill-opacity="1">tfe_organization_token</text><path fill="none" stroke="url(#dgkgkeVfbvEJ)" paint-order="fill stroke markers" d=" M 1303.0000007152557 474.50000071525574 L 1303.0000007152557 1304.6166708389915 L 578 1304.6166708389915 L 578 2134.733340962727" stroke-linejoin="round" stroke-miterlimit="10" stroke-width="10"/><path fill="none" stroke="url(#cgcTByRgmWtk)" paint-order="fill stroke markers" d=" M 1303.0000007152557 474.50000071525574 L 1303.0000007152557 1304.6166708389915 L 578 1304.6166708389915 L 578 2134.733340962727" stroke-linejoin="round" stroke-miterlimit="10" stroke-width="10"/><path fill="none" stroke="url(#XUWEOJDyCgDt)" paint-order="fill stroke markers" d=" M 1303.0000007152557 607.5000014305115 L 1303.0000007152557 1371.1166711966193 L 578 1371.1166711966193 L 578 2134.733340962727" stroke-linejoin="round" stroke-miterlimit="10" stroke-width="10"/><path fill="none" stroke="url(#FAhkLbZZAHir)" paint-order="fill stroke markers" d=" M 1303.0000007152557 607.5000014305115 L 1303.0000007152557 1371.1166711966193 L 578 1371.1166711966193 L 578 2134.733340962727" stroke-linejoin="round" stroke-miterlimit="10" stroke-width="10"/><path fill="none" stroke="url(#TOLNIHDouyXv)" paint-order="fill stroke markers" d=" M 1303.0000007152557 740.5000021457672 L 1303.0000007152557 1437.6166715542472 L 578 1437.6166715542472 L 578 2134.733340962727" stroke-linejoin="round" stroke-miterlimit="10" stroke-width="10"/><path fill="none" stroke="url(#pOuPEdsEmyOd)" paint-order="fill stroke markers" d=" M 1303.0000007152557 740.5000021457672 L 1303.0000007152557 1437.6166715542472 L 578 1437.6166715542472 L 578 2134.733340962727" stroke-linejoin="round" stroke-miterlimit="10" stroke-width="10"/><path fill="none" stroke="url(#TrLBmsTRHXFb)" paint-order="fill stroke markers" d=" M 1303.0000007152557 341.5 L 1303.0000007152557 1238.1166704813636 L 578 1238.1166704813636 L 578 2134.733340962727" stroke-linejoin="round" stroke-miterlimit="10" stroke-width="10"/><path fill="none" stroke="url(#eZLVoSKWaoVR)" paint-order="fill stroke markers" d=" M 1303.0000007152557 341.5 L 1303.0000007152557 1238.1166704813636 L 578 1238.1166704813636 L 578 2134.733340962727" stroke-linejoin="round" stroke-miterlimit="10" stroke-width="10"/><path fill="none" stroke="url(#TcxAttqkZUAN)" paint-order="fill stroke markers" d=" M 578 2134.733340962727 L 578 1437.6166715542472 L 2306.0000014305115 1437.6166715542472 L 2306.0000014305115 740.5000021457672" stroke-linejoin="round" stroke-miterlimit="10" stroke-width="10"/><path fill="none" stroke="url(#krqqvuPVQMUl)" paint-order="fill stroke markers" d=" M 578 2134.733340962727 L 578 1371.1166711966193 L 2306.0000014305115 1371.1166711966193 L 2306.0000014305115 607.5000014305115" stroke-linejoin="round" stroke-miterlimit="10" stroke-width="10"/><path fill="none" stroke="url(#GdDpSPUtIupL)" paint-order="fill stroke markers" d=" M 2671.699999642372 1867.2333395322162 L 2671.699999642372 1436.8666715542472 L 2306.0000014305115 1436.8666715542472 L 2306.0000014305115 1006.5000035762787" stroke-linejoin="round" stroke-miterlimit="10" stroke-width="10"/><path fill="none" stroke="url(#OtCrgFNszUuK)" paint-order="fill stroke markers" d=" M 2671.699999642372 1867.2333395322162 L 2671.699999642372 1503.366671911875 L 2306.0000014305115 1503.366671911875 L 2306.0000014305115 1139.5000042915344" stroke-linejoin="round" stroke-miterlimit="10" stroke-width="10"/><path fill="none" stroke="url(#ieBzRspTFMRg)" paint-order="fill stroke markers" d=" M 2671.699999642372 1867.2333395322162 L 2671.699999642372 1569.866672269503 L 2306.0000014305115 1569.866672269503 L 2306.0000014305115 1272.5000050067902" stroke-linejoin="round" stroke-miterlimit="10" stroke-width="10"/><path fill="none" stroke="url(#DNnoWmZANeSt)" paint-order="fill stroke markers" d=" M 2671.699999642372 1867.2333395322162 L 2671.699999642372 1370.3666711966193 L 2306.0000014305115 1370.3666711966193 L 2306.0000014305115 873.500002861023" stroke-linejoin="round" stroke-miterlimit="10" stroke-width="10"/><path fill="none" stroke="url(#hQqWumiNZlhS)" paint-order="fill stroke markers" d=" M 2368.699999284744 2117.733339532216 L 2644.949999642372 2117.733339532216 L 2644.949999642372 2217.733339532216 L 2921.2 2217.733339532216" stroke-linejoin="round" stroke-miterlimit="10" stroke-width="10"/><path fill="none" stroke="url(#RNgGnfVzynTO)" paint-order="fill stroke markers" d=" M 3195.2 2256.733339532216 L 3195.2 2730.0833409627276 L 2092.199999284744 2730.0833409627276 L 2092.199999284744 3203.433342393239" stroke-linejoin="round" stroke-miterlimit="10" stroke-width="10"/><path fill="none" stroke="url(#fHBVINDSylZA)" paint-order="fill stroke markers" d=" M 3195.2 2256.733339532216 L 3195.2 2796.5833413203554 L 2092.199999284744 2796.5833413203554 L 2092.199999284744 3336.4333431084947" stroke-linejoin="round" stroke-miterlimit="10" stroke-width="10"/><path fill="none" stroke="url(#TeOWMpTwbLLc)" paint-order="fill stroke markers" d=" M 3195.2 2256.733339532216 L 3195.2 2996.083342393239 L 2092.199999284744 2996.083342393239 L 2092.199999284744 3735.433345254262" stroke-linejoin="round" stroke-miterlimit="10" stroke-width="10"/><path fill="none" stroke="url(#UcfpTPVtXdKQ)" paint-order="fill stroke markers" d=" M 3195.2 2256.733339532216 L 3195.2 2863.0833416779833 L 2092.199999284744 2863.0833416779833 L 2092.199999284744 3469.4333438237504" stroke-linejoin="round" stroke-miterlimit="10" stroke-width="10"/><path fill="none" stroke="url(#EBDiVMeOvXfk)" paint-order="fill stroke markers" d=" M 2921.2 2217.733339532216 L 2644.949999642372 2217.733339532216 L 2644.949999642372 2845.9333402474717 L 2368.699999284744 2845.9333402474717" stroke-linejoin="round" stroke-miterlimit="10" stroke-width="10"/><path fill="none" stroke="url(#lTdACXzMyvJD)" paint-order="fill stroke markers" d=" M 3195.2 2256.733339532216 L 3195.2 2597.083340247472 L 2092.199999284744 2597.083340247472 L 2092.199999284744 2937.4333409627275" stroke-linejoin="round" stroke-miterlimit="10" stroke-width="10"/><path fill="none" stroke="url(#nkDpheAAEsBT)" paint-order="fill stroke markers" d=" M 3195.2 2256.733339532216 L 3195.2 2663.5833406050997 L 2092.199999284744 2663.5833406050997 L 2092.199999284744 3070.433341677983" stroke-linejoin="round" stroke-miterlimit="10" stroke-width="10"/><path fill="none" stroke="url(#RBmphIZFpxUF)" paint-order="fill stroke markers" d=" M 3195.2 2256.733339532216 L 3195.2 2929.583342035611 L 2092.199999284744 2929.583342035611 L 2092.199999284744 3602.433344539006" stroke-linejoin="round" stroke-miterlimit="10" stroke-width="10"/><path fill="none" stroke="url(#RNxaFGlsXdTM)" paint-order="fill stroke markers" d=" M 3195.2 2256.733339532216 L 3195.2 3062.583342750867 L 2092.199999284744 3062.583342750867 L 2092.199999284744 3868.4333459695176" stroke-linejoin="round" stroke-miterlimit="10" stroke-width="10"/><path fill="none" stroke="url(#HGmpTUGoMHGC)" paint-order="fill stroke markers" d=" M 4046.399999284744 3089.9500096559523 L 3314.4500003576277 3089.9500096559523 L 3314.4500003576277 433.00000071525574 L 2582.5000014305115 433.00000071525574" stroke-linejoin="round" stroke-miterlimit="10" stroke-width="10"/><path fill="none" stroke="url(#VTTkgVgTeLwF)" paint-order="fill stroke markers" d=" M 4046.399999284744 3089.9500096559523 L 3314.4500003576277 3089.9500096559523 L 3314.4500003576277 300 L 2582.5000014305115 300" stroke-linejoin="round" stroke-miterlimit="10" stroke-width="10"/><path fill="none" stroke="url(#BgkTXsWZGHkB)" paint-order="fill stroke markers" d=" M 5790.4 2431.2000064373015 L 5790.4 2771.5500071525576 L 4687.399999284744 2771.5500071525576 L 4687.399999284744 3111.900007867813" stroke-linejoin="round" stroke-miterlimit="10" stroke-width="10"/><path fill="none" stroke="url(#KVqJJlOdDHxA)" paint-order="fill stroke markers" d=" M 5790.4 2353.2000064373015 L 5790.4 2228.1000060796737 L 5790.4 2228.1000060796737 L 5790.4 2103.000005722046" stroke-linejoin="round" stroke-miterlimit="10" stroke-width="10"/><path fill="none" stroke="url(#TezuzHIpKrlk)" paint-order="fill stroke markers" d=" M 5790.4 2103.000005722046 L 5790.4 3006.4500089406965 L 4687.399999284744 3006.4500089406965 L 4687.399999284744 3909.9000121593476" stroke-linejoin="round" stroke-miterlimit="10" stroke-width="10"/><path fill="none" stroke="url(#OwOPitpRhMXm)" paint-order="fill stroke markers" d=" M 5790.4 2103.000005722046 L 5790.4 2673.950007152557 L 4687.399999284744 2673.950007152557 L 4687.399999284744 3244.900008583069" stroke-linejoin="round" stroke-miterlimit="10" stroke-width="10"/><path fill="none" stroke="url(#GoMsGRLwKTDF)" paint-order="fill stroke markers" d=" M 5790.4 2103.000005722046 L 5790.4 2806.950007867813 L 4687.399999284744 2806.950007867813 L 4687.399999284744 3510.9000100135804" stroke-linejoin="round" stroke-miterlimit="10" stroke-width="10"/><path fill="none" stroke="url(#ANZUZGHPAaKE)" paint-order="fill stroke markers" d=" M 5790.4 2103.000005722046 L 5790.4 3139.4500096559523 L 4687.399999284744 3139.4500096559523 L 4687.399999284744 4175.900013589859" stroke-linejoin="round" stroke-miterlimit="10" stroke-width="10"/><path fill="none" stroke="url(#RXbEwFFRnUbd)" paint-order="fill stroke markers" d=" M 5790.4 2103.000005722046 L 5790.4 2740.450007510185 L 4687.399999284744 2740.450007510185 L 4687.399999284744 3377.9000092983247" stroke-linejoin="round" stroke-miterlimit="10" stroke-width="10"/><path fill="none" stroke="url(#NrGcTSvCwdCX)" paint-order="fill stroke markers" d=" M 5790.4 2103.000005722046 L 5790.4 3072.9500092983244 L 4687.399999284744 3072.9500092983244 L 4687.399999284744 4042.9000128746034" stroke-linejoin="round" stroke-miterlimit="10" stroke-width="10"/><path fill="none" stroke="url(#IzpWxgrNhUUe)" paint-order="fill stroke markers" d=" M 5790.4 2103.000005722046 L 5790.4 2873.450008225441 L 4687.399999284744 2873.450008225441 L 4687.399999284744 3643.900010728836" stroke-linejoin="round" stroke-miterlimit="10" stroke-width="10"/><path fill="none" stroke="url(#EtfepaKcuDRe)" paint-order="fill stroke markers" d=" M 5790.4 2103.000005722046 L 5790.4 2540.9500064373015 L 4687.399999284744 2540.9500064373015 L 4687.399999284744 2978.9000071525575" stroke-linejoin="round" stroke-miterlimit="10" stroke-width="10"/><path fill="none" stroke="url(#BQPoguddHErl)" paint-order="fill stroke markers" d=" M 4963.899999284744 2097.0000064373016 L 5240.149999642372 2097.0000064373016 L 5240.149999642372 2392.2000064373015 L 5516.4 2392.2000064373015" stroke-linejoin="round" stroke-miterlimit="10" stroke-width="10"/><path fill="none" stroke="url(#CCbJaNJwqyrh)" paint-order="fill stroke markers" d=" M 4963.899999284744 2230.0000071525574 L 5240.149999642372 2230.0000071525574 L 5240.149999642372 2064.000005722046 L 5516.4 2064.000005722046" stroke-linejoin="round" stroke-miterlimit="10" stroke-width="10"/><path fill="rgb(255,247,224)" stroke="rgb(255,193,7)" paint-order="fill stroke markers" d=" M 1303.0000007152557 261 L 1569.0000007152557 261 L 1569.0000007152557 261 A 8 8 0 0 1 1577.0000007152557 269 L 1577.0000007152557 331 L 1577.0000007152557 331 A 8 8 0 0 1 1569.0000007152557 339 L 1037.0000007152557 339 L 1037.0000007152557 339 A 8 8 0 0 1 1029.0000007152557 331 L 1029.0000007152557 269 L 1029.0000007152557 269 A 8 8 0 0 1 1037.0000007152557 261 L 1303.0000007152557 261 Z" fill-opacity="1" stroke-opacity="1" stroke-miterlimit="10" stroke-width="5"/><text fill="rgb(0,0,0)" stroke="none" font-family="Avenir, Helvetica, Arial, sans-serif" font-size="32px" font-style="normal" font-weight="bold" text-decoration="normal" x="1303.0000007152557" y="316" text-anchor="middle" dominant-baseline="text-after-edge" fill-opacity="1">registry_module_provider</text><path fill="rgb(255,247,224)" stroke="rgb(255,193,7)" paint-order="fill stroke markers" d=" M 1303.0000007152557 394.00000071525574 L 1569.0000007152557 394.00000071525574 L 1569.0000007152557 394.00000071525574 A 8 8 0 0 1 1577.0000007152557 402.00000071525574 L 1577.0000007152557 464.00000071525574 L 1577.0000007152557 464.00000071525574 A 8 8 0 0 1 1569.0000007152557 472.00000071525574 L 1037.0000007152557 472.00000071525574 L 1037.0000007152557 472.00000071525574 A 8 8 0 0 1 1029.0000007152557 464.00000071525574 L 1029.0000007152557 402.00000071525574 L 1029.0000007152557 402.00000071525574 A 8 8 0 0 1 1037.0000007152557 394.00000071525574 L 1303.0000007152557 394.00000071525574 Z" fill-opacity="1" stroke-opacity="1" stroke-miterlimit="10" stroke-width="5"/><text fill="rgb(0,0,0)" stroke="none" font-family="Avenir, Helvetica, Arial, sans-serif" font-size="32px" font-style="normal" font-weight="bold" text-decoration="normal" x="1303.0000007152557" y="449.00000071525574" text-anchor="middle" dominant-baseline="text-after-edge" fill-opacity="1">registry_name</text><path fill="rgb(255,247,224)" stroke="rgb(255,193,7)" paint-order="fill stroke markers" d=" M 1303.0000007152557 527.0000014305115 L 1569.0000007152557 527.0000014305115 L 1569.0000007152557 527.0000014305115 A 8 8 0 0 1 1577.0000007152557 535.0000014305115 L 1577.0000007152557 597.0000014305115 L 1577.0000007152557 597.0000014305115 A 8 8 0 0 1 1569.0000007152557 605.0000014305115 L 1037.0000007152557 605.0000014305115 L 1037.0000007152557 605.0000014305115 A 8 8 0 0 1 1029.0000007152557 597.0000014305115 L 1029.0000007152557 535.0000014305115 L 1029.0000007152557 535.0000014305115 A 8 8 0 0 1 1037.0000007152557 527.0000014305115 L 1303.0000007152557 527.0000014305115 Z" fill-opacity="1" stroke-opacity="1" stroke-miterlimit="10" stroke-width="5"/><text fill="rgb(0,0,0)" stroke="none" font-family="Avenir, Helvetica, Arial, sans-serif" font-size="32px" font-style="normal" font-weight="bold" text-decoration="normal" x="1303.0000007152557" y="582.0000014305115" text-anchor="middle" dominant-baseline="text-after-edge" fill-opacity="1">registry_organization</text><path fill="rgb(255,247,224)" stroke="rgb(255,193,7)" paint-order="fill stroke markers" d=" M 1303.0000007152557 660.0000021457672 L 1569.0000007152557 660.0000021457672 L 1569.0000007152557 660.0000021457672 A 8 8 0 0 1 1577.0000007152557 668.0000021457672 L 1577.0000007152557 730.0000021457672 L 1577.0000007152557 730.0000021457672 A 8 8 0 0 1 1569.0000007152557 738.0000021457672 L 1037.0000007152557 738.0000021457672 L 1037.0000007152557 738.0000021457672 A 8 8 0 0 1 1029.0000007152557 730.0000021457672 L 1029.0000007152557 668.0000021457672 L 1029.0000007152557 668.0000021457672 A 8 8 0 0 1 1037.0000007152557 660.0000021457672 L 1303.0000007152557 660.0000021457672 Z" fill-opacity="1" stroke-opacity="1" stroke-miterlimit="10" stroke-width="5"/><text fill="rgb(0,0,0)" stroke="none" font-family="Avenir, Helvetica, Arial, sans-serif" font-size="32px" font-style="normal" font-weight="bold" text-decoration="normal" x="1303.0000007152557" y="715.0000021457672" text-anchor="middle" dominant-baseline="text-after-edge" fill-opacity="1">registry_id</text><path fill="rgb(225,240,255)" stroke="rgb(29,122,218)" paint-order="fill stroke markers" d=" M 300 261 L 566 261 L 566 261 A 8 8 0 0 1 574 269 L 574 331 L 574 331 A 8 8 0 0 1 566 339 L 34 339 L 34 339 A 8 8 0 0 1 26 331 L 26 269 L 26 269 A 8 8 0 0 1 34 261 L 300 261 Z" fill-opacity="1" stroke-opacity="1" stroke-miterlimit="10" stroke-width="5"/><text fill="rgb(0,0,0)" stroke="none" font-family="Avenir, Helvetica, Arial, sans-serif" font-size="32px" font-style="normal" font-weight="bold" text-decoration="normal" x="300" y="316" text-anchor="middle" dominant-baseline="text-after-edge" fill-opacity="1">token</text><path fill="rgb(225,240,255)" stroke="rgb(29,122,218)" paint-order="fill stroke markers" d=" M 500 2344.733340962727 L 766 2344.733340962727 L 766 2344.733340962727 A 8 8 0 0 1 774 2352.733340962727 L 774 2414.733340962727 L 774 2414.733340962727 A 8 8 0 0 1 766 2422.733340962727 L 234 2422.733340962727 L 234 2422.733340962727 A 8 8 0 0 1 226 2414.733340962727 L 226 2352.733340962727 L 226 2352.733340962727 A 8 8 0 0 1 234 2344.733340962727 L 500 2344.733340962727 Z" fill-opacity="1" stroke-opacity="1" stroke-miterlimit="10" stroke-width="5"/><text fill="rgb(0,0,0)" stroke="none" font-family="Avenir, Helvetica, Arial, sans-serif" font-size="32px" font-style="normal" font-weight="bold" text-decoration="normal" x="500" y="2399.733340962727" text-anchor="middle" dominant-baseline="text-after-edge" fill-opacity="1">display_identifier</text><path fill="rgb(225,240,255)" stroke="rgb(29,122,218)" paint-order="fill stroke markers" d=" M 500 2477.733341677983 L 766 2477.733341677983 L 766 2477.733341677983 A 8 8 0 0 1 774 2485.733341677983 L 774 2547.733341677983 L 774 2547.733341677983 A 8 8 0 0 1 766 2555.733341677983 L 234 2555.733341677983 L 234 2555.733341677983 A 8 8 0 0 1 226 2547.733341677983 L 226 2485.733341677983 L 226 2485.733341677983 A 8 8 0 0 1 234 2477.733341677983 L 500 2477.733341677983 Z" fill-opacity="1" stroke-opacity="1" stroke-miterlimit="10" stroke-width="5"/><text fill="rgb(0,0,0)" stroke="none" font-family="Avenir, Helvetica, Arial, sans-serif" font-size="32px" font-style="normal" font-weight="bold" text-decoration="normal" x="500" y="2532.733341677983" text-anchor="middle" dominant-baseline="text-after-edge" fill-opacity="1">identifier</text><path fill="rgb(225,240,255)" stroke="rgb(29,122,218)" paint-order="fill stroke markers" d=" M 500 2610.7333423932387 L 766 2610.7333423932387 L 766 2610.7333423932387 A 8 8 0 0 1 774 2618.7333423932387 L 774 2680.7333423932387 L 774 2680.7333423932387 A 8 8 0 0 1 766 2688.7333423932387 L 234 2688.7333423932387 L 234 2688.7333423932387 A 8 8 0 0 1 226 2680.7333423932387 L 226 2618.7333423932387 L 226 2618.7333423932387 A 8 8 0 0 1 234 2610.7333423932387 L 500 2610.7333423932387 Z" fill-opacity="1" stroke-opacity="1" stroke-miterlimit="10" stroke-width="5"/><text fill="rgb(0,0,0)" stroke="none" font-family="Avenir, Helvetica, Arial, sans-serif" font-size="32px" font-style="normal" font-weight="bold" text-decoration="normal" x="500" y="2665.7333423932387" text-anchor="middle" dominant-baseline="text-after-edge" fill-opacity="1">oauth_token_id</text><path fill="rgb(40,167,69)" stroke="none" paint-order="stroke fill markers" d=" M 600 3243.7333431084944 L 866 3243.7333431084944 L 866 3243.7333431084944 A 8 8 0 0 1 874 3251.7333431084944 L 874 3313.7333431084944 L 874 3313.7333431084944 A 8 8 0 0 1 866 3321.7333431084944 L 334 3321.7333431084944 L 334 3321.7333431084944 A 8 8 0 0 1 326 3313.7333431084944 L 326 3251.7333431084944 L 326 3251.7333431084944 A 8 8 0 0 1 334 3243.7333431084944 L 600 3243.7333431084944 Z" fill-opacity="1"/><text fill="rgb(255,255,255)" stroke="none" font-family="Avenir, Helvetica, Arial, sans-serif" font-size="32px" font-style="normal" font-weight="bold" text-decoration="normal" x="600" y="3298.7333431084944" text-anchor="middle" dominant-baseline="text-after-edge" fill-opacity="1">default</text><path fill="rgb(255,247,224)" stroke="rgb(255,193,7)" paint-order="fill stroke markers" d=" M 2092.199999284744 2078.733339532216 L 2358.199999284744 2078.733339532216 L 2358.199999284744 2078.733339532216 A 8 8 0 0 1 2366.199999284744 2086.733339532216 L 2366.199999284744 2148.733339532216 L 2366.199999284744 2148.733339532216 A 8 8 0 0 1 2358.199999284744 2156.733339532216 L 1826.199999284744 2156.733339532216 L 1826.199999284744 2156.733339532216 A 8 8 0 0 1 1818.199999284744 2148.733339532216 L 1818.199999284744 2086.733339532216 L 1818.199999284744 2086.733339532216 A 8 8 0 0 1 1826.199999284744 2078.733339532216 L 2092.199999284744 2078.733339532216 Z" fill-opacity="1" stroke-opacity="1" stroke-miterlimit="10" stroke-width="5"/><text fill="rgb(0,0,0)" stroke="none" font-family="Avenir, Helvetica, Arial, sans-serif" font-size="32px" font-style="normal" font-weight="bold" text-decoration="normal" x="2092.199999284744" y="2133.733339532216" text-anchor="middle" dominant-baseline="text-after-edge" fill-opacity="1">oauth_token_id</text><path fill="rgb(225,240,255)" stroke="rgb(29,122,218)" paint-order="fill stroke markers" d=" M 2092.199999284744 2806.9333402474717 L 2358.199999284744 2806.9333402474717 L 2358.199999284744 2806.9333402474717 A 8 8 0 0 1 2366.199999284744 2814.9333402474717 L 2366.199999284744 2876.9333402474717 L 2366.199999284744 2876.9333402474717 A 8 8 0 0 1 2358.199999284744 2884.9333402474717 L 1826.199999284744 2884.9333402474717 L 1826.199999284744 2884.9333402474717 A 8 8 0 0 1 1818.199999284744 2876.9333402474717 L 1818.199999284744 2814.9333402474717 L 1818.199999284744 2814.9333402474717 A 8 8 0 0 1 1826.199999284744 2806.9333402474717 L 2092.199999284744 2806.9333402474717 Z" fill-opacity="1" stroke-opacity="1" stroke-miterlimit="10" stroke-width="5"/><text fill="rgb(0,0,0)" stroke="none" font-family="Avenir, Helvetica, Arial, sans-serif" font-size="32px" font-style="normal" font-weight="bold" text-decoration="normal" x="2092.199999284744" y="2861.9333402474717" text-anchor="middle" dominant-baseline="text-after-edge" fill-opacity="1">secret</text><path fill="rgb(225,240,255)" stroke="rgb(29,122,218)" paint-order="fill stroke markers" d=" M 2092.199999284744 2939.9333409627275 L 2358.199999284744 2939.9333409627275 L 2358.199999284744 2939.9333409627275 A 8 8 0 0 1 2366.199999284744 2947.9333409627275 L 2366.199999284744 3009.9333409627275 L 2366.199999284744 3009.9333409627275 A 8 8 0 0 1 2358.199999284744 3017.9333409627275 L 1826.199999284744 3017.9333409627275 L 1826.199999284744 3017.9333409627275 A 8 8 0 0 1 1818.199999284744 3009.9333409627275 L 1818.199999284744 2947.9333409627275 L 1818.199999284744 2947.9333409627275 A 8 8 0 0 1 1826.199999284744 2939.9333409627275 L 2092.199999284744 2939.9333409627275 Z" fill-opacity="1" stroke-opacity="1" stroke-miterlimit="10" stroke-width="5"/><text fill="rgb(0,0,0)" stroke="none" font-family="Avenir, Helvetica, Arial, sans-serif" font-size="32px" font-style="normal" font-weight="bold" text-decoration="normal" x="2092.199999284744" y="2994.9333409627275" text-anchor="middle" dominant-baseline="text-after-edge" fill-opacity="1">service_provider</text><path fill="rgb(225,240,255)" stroke="rgb(29,122,218)" paint-order="fill stroke markers" d=" M 2092.199999284744 3072.933341677983 L 2358.199999284744 3072.933341677983 L 2358.199999284744 3072.933341677983 A 8 8 0 0 1 2366.199999284744 3080.933341677983 L 2366.199999284744 3142.933341677983 L 2366.199999284744 3142.933341677983 A 8 8 0 0 1 2358.199999284744 3150.933341677983 L 1826.199999284744 3150.933341677983 L 1826.199999284744 3150.933341677983 A 8 8 0 0 1 1818.199999284744 3142.933341677983 L 1818.199999284744 3080.933341677983 L 1818.199999284744 3080.933341677983 A 8 8 0 0 1 1826.199999284744 3072.933341677983 L 2092.199999284744 3072.933341677983 Z" fill-opacity="1" stroke-opacity="1" stroke-miterlimit="10" stroke-width="5"/><text fill="rgb(0,0,0)" stroke="none" font-family="Avenir, Helvetica, Arial, sans-serif" font-size="32px" font-style="normal" font-weight="bold" text-decoration="normal" x="2092.199999284744" y="3127.933341677983" text-anchor="middle" dominant-baseline="text-after-edge" fill-opacity="1">api_url</text><path fill="rgb(225,240,255)" stroke="rgb(29,122,218)" paint-order="fill stroke markers" d=" M 2092.199999284744 3205.933342393239 L 2358.199999284744 3205.933342393239 L 2358.199999284744 3205.933342393239 A 8 8 0 0 1 2366.199999284744 3213.933342393239 L 2366.199999284744 3275.933342393239 L 2366.199999284744 3275.933342393239 A 8 8 0 0 1 2358.199999284744 3283.933342393239 L 1826.199999284744 3283.933342393239 L 1826.199999284744 3283.933342393239 A 8 8 0 0 1 1818.199999284744 3275.933342393239 L 1818.199999284744 3213.933342393239 L 1818.199999284744 3213.933342393239 A 8 8 0 0 1 1826.199999284744 3205.933342393239 L 2092.199999284744 3205.933342393239 Z" fill-opacity="1" stroke-opacity="1" stroke-miterlimit="10" stroke-width="5"/><text fill="rgb(0,0,0)" stroke="none" font-family="Avenir, Helvetica, Arial, sans-serif" font-size="32px" font-style="normal" font-weight="bold" text-decoration="normal" x="2092.199999284744" y="3260.933342393239" text-anchor="middle" dominant-baseline="text-after-edge" fill-opacity="1">http_url</text><path fill="rgb(225,240,255)" stroke="rgb(29,122,218)" paint-order="fill stroke markers" d=" M 2092.199999284744 3338.9333431084947 L 2358.199999284744 3338.9333431084947 L 2358.199999284744 3338.9333431084947 A 8 8 0 0 1 2366.199999284744 3346.9333431084947 L 2366.199999284744 3408.9333431084947 L 2366.199999284744 3408.9333431084947 A 8 8 0 0 1 2358.199999284744 3416.9333431084947 L 1826.199999284744 3416.9333431084947 L 1826.199999284744 3416.9333431084947 A 8 8 0 0 1 1818.199999284744 3408.9333431084947 L 1818.199999284744 3346.9333431084947 L 1818.199999284744 3346.9333431084947 A 8 8 0 0 1 1826.199999284744 3338.9333431084947 L 2092.199999284744 3338.9333431084947 Z" fill-opacity="1" stroke-opacity="1" stroke-miterlimit="10" stroke-width="5"/><text fill="rgb(0,0,0)" stroke="none" font-family="Avenir, Helvetica, Arial, sans-serif" font-size="32px" font-style="normal" font-weight="bold" text-decoration="normal" x="2092.199999284744" y="3393.9333431084947" text-anchor="middle" dominant-baseline="text-after-edge" fill-opacity="1">oauth_token</text><path fill="rgb(225,240,255)" stroke="rgb(29,122,218)" paint-order="fill stroke markers" d=" M 2092.199999284744 3471.9333438237504 L 2358.199999284744 3471.9333438237504 L 2358.199999284744 3471.9333438237504 A 8 8 0 0 1 2366.199999284744 3479.9333438237504 L 2366.199999284744 3541.9333438237504 L 2366.199999284744 3541.9333438237504 A 8 8 0 0 1 2358.199999284744 3549.9333438237504 L 1826.199999284744 3549.9333438237504 L 1826.199999284744 3549.9333438237504 A 8 8 0 0 1 1818.199999284744 3541.9333438237504 L 1818.199999284744 3479.9333438237504 L 1818.199999284744 3479.9333438237504 A 8 8 0 0 1 1826.199999284744 3471.9333438237504 L 2092.199999284744 3471.9333438237504 Z" fill-opacity="1" stroke-opacity="1" stroke-miterlimit="10" stroke-width="5"/><text fill="rgb(0,0,0)" stroke="none" font-family="Avenir, Helvetica, Arial, sans-serif" font-size="32px" font-style="normal" font-weight="bold" text-decoration="normal" x="2092.199999284744" y="3526.9333438237504" text-anchor="middle" dominant-baseline="text-after-edge" fill-opacity="1">rsa_public_key</text><path fill="rgb(225,240,255)" stroke="rgb(29,122,218)" paint-order="fill stroke markers" d=" M 2092.199999284744 3604.933344539006 L 2358.199999284744 3604.933344539006 L 2358.199999284744 3604.933344539006 A 8 8 0 0 1 2366.199999284744 3612.933344539006 L 2366.199999284744 3674.933344539006 L 2366.199999284744 3674.933344539006 A 8 8 0 0 1 2358.199999284744 3682.933344539006 L 1826.199999284744 3682.933344539006 L 1826.199999284744 3682.933344539006 A 8 8 0 0 1 1818.199999284744 3674.933344539006 L 1818.199999284744 3612.933344539006 L 1818.199999284744 3612.933344539006 A 8 8 0 0 1 1826.199999284744 3604.933344539006 L 2092.199999284744 3604.933344539006 Z" fill-opacity="1" stroke-opacity="1" stroke-miterlimit="10" stroke-width="5"/><text fill="rgb(0,0,0)" stroke="none" font-family="Avenir, Helvetica, Arial, sans-serif" font-size="32px" font-style="normal" font-weight="bold" text-decoration="normal" x="2092.199999284744" y="3659.933344539006" text-anchor="middle" dominant-baseline="text-after-edge" fill-opacity="1">private_key</text><path fill="rgb(225,240,255)" stroke="rgb(29,122,218)" paint-order="fill stroke markers" d=" M 2092.199999284744 3737.933345254262 L 2358.199999284744 3737.933345254262 L 2358.199999284744 3737.933345254262 A 8 8 0 0 1 2366.199999284744 3745.933345254262 L 2366.199999284744 3807.933345254262 L 2366.199999284744 3807.933345254262 A 8 8 0 0 1 2358.199999284744 3815.933345254262 L 1826.199999284744 3815.933345254262 L 1826.199999284744 3815.933345254262 A 8 8 0 0 1 1818.199999284744 3807.933345254262 L 1818.199999284744 3745.933345254262 L 1818.199999284744 3745.933345254262 A 8 8 0 0 1 1826.199999284744 3737.933345254262 L 2092.199999284744 3737.933345254262 Z" fill-opacity="1" stroke-opacity="1" stroke-miterlimit="10" stroke-width="5"/><text fill="rgb(0,0,0)" stroke="none" font-family="Avenir, Helvetica, Arial, sans-serif" font-size="32px" font-style="normal" font-weight="bold" text-decoration="normal" x="2092.199999284744" y="3792.933345254262" text-anchor="middle" dominant-baseline="text-after-edge" fill-opacity="1">organization</text><path fill="rgb(225,240,255)" stroke="rgb(29,122,218)" paint-order="fill stroke markers" d=" M 2092.199999284744 3870.9333459695176 L 2358.199999284744 3870.9333459695176 L 2358.199999284744 3870.9333459695176 A 8 8 0 0 1 2366.199999284744 3878.9333459695176 L 2366.199999284744 3940.9333459695176 L 2366.199999284744 3940.9333459695176 A 8 8 0 0 1 2358.199999284744 3948.9333459695176 L 1826.199999284744 3948.9333459695176 L 1826.199999284744 3948.9333459695176 A 8 8 0 0 1 1818.199999284744 3940.9333459695176 L 1818.199999284744 3878.9333459695176 L 1818.199999284744 3878.9333459695176 A 8 8 0 0 1 1826.199999284744 3870.9333459695176 L 2092.199999284744 3870.9333459695176 Z" fill-opacity="1" stroke-opacity="1" stroke-miterlimit="10" stroke-width="5"/><text fill="rgb(0,0,0)" stroke="none" font-family="Avenir, Helvetica, Arial, sans-serif" font-size="32px" font-style="normal" font-weight="bold" text-decoration="normal" x="2092.199999284744" y="3925.9333459695176" text-anchor="middle" dominant-baseline="text-after-edge" fill-opacity="1">key</text><path fill="rgb(40,167,69)" stroke="none" paint-order="stroke fill markers" d=" M 3195.2 2178.733339532216 L 3461.2 2178.733339532216 L 3461.2 2178.733339532216 A 8 8 0 0 1 3469.2 2186.733339532216 L 3469.2 2248.733339532216 L 3469.2 2248.733339532216 A 8 8 0 0 1 3461.2 2256.733339532216 L 2929.2 2256.733339532216 L 2929.2 2256.733339532216 A 8 8 0 0 1 2921.2 2248.733339532216 L 2921.2 2186.733339532216 L 2921.2 2186.733339532216 A 8 8 0 0 1 2929.2 2178.733339532216 L 3195.2 2178.733339532216 Z" fill-opacity="1"/><text fill="rgb(255,255,255)" stroke="none" font-family="Avenir, Helvetica, Arial, sans-serif" font-size="32px" font-style="normal" font-weight="bold" text-decoration="normal" x="3195.2" y="2233.733339532216" text-anchor="middle" dominant-baseline="text-after-edge" fill-opacity="1">default</text><path fill="rgb(255,247,224)" stroke="rgb(255,193,7)" paint-order="fill stroke markers" d=" M 4687.399999284744 1925.000005722046 L 4953.399999284744 1925.000005722046 L 4953.399999284744 1925.000005722046 A 8 8 0 0 1 4961.399999284744 1933.000005722046 L 4961.399999284744 1995.000005722046 L 4961.399999284744 1995.000005722046 A 8 8 0 0 1 4953.399999284744 2003.000005722046 L 4421.399999284744 2003.000005722046 L 4421.399999284744 2003.000005722046 A 8 8 0 0 1 4413.399999284744 1995.000005722046 L 4413.399999284744 1933.000005722046 L 4413.399999284744 1933.000005722046 A 8 8 0 0 1 4421.399999284744 1925.000005722046 L 4687.399999284744 1925.000005722046 Z" fill-opacity="1" stroke-opacity="1" stroke-miterlimit="10" stroke-width="5"/><text fill="rgb(0,0,0)" stroke="none" font-family="Avenir, Helvetica, Arial, sans-serif" font-size="32px" font-style="normal" font-weight="bold" text-decoration="normal" x="4687.399999284744" y="1980.000005722046" text-anchor="middle" dominant-baseline="text-after-edge" fill-opacity="1">id</text><path fill="rgb(255,247,224)" stroke="rgb(255,193,7)" paint-order="fill stroke markers" d=" M 4687.399999284744 2058.0000064373016 L 4953.399999284744 2058.0000064373016 L 4953.399999284744 2058.0000064373016 A 8 8 0 0 1 4961.399999284744 2066.0000064373016 L 4961.399999284744 2128.0000064373016 L 4961.399999284744 2128.0000064373016 A 8 8 0 0 1 4953.399999284744 2136.0000064373016 L 4421.399999284744 2136.0000064373016 L 4421.399999284744 2136.0000064373016 A 8 8 0 0 1 4413.399999284744 2128.0000064373016 L 4413.399999284744 2066.0000064373016 L 4413.399999284744 2066.0000064373016 A 8 8 0 0 1 4421.399999284744 2058.0000064373016 L 4687.399999284744 2058.0000064373016 Z" fill-opacity="1" stroke-opacity="1" stroke-miterlimit="10" stroke-width="5"/><text fill="rgb(0,0,0)" stroke="none" font-family="Avenir, Helvetica, Arial, sans-serif" font-size="32px" font-style="normal" font-weight="bold" text-decoration="normal" x="4687.399999284744" y="2113.0000064373016" text-anchor="middle" dominant-baseline="text-after-edge" fill-opacity="1">token</text><path fill="rgb(255,247,224)" stroke="rgb(255,193,7)" paint-order="fill stroke markers" d=" M 4687.399999284744 2191.0000071525574 L 4953.399999284744 2191.0000071525574 L 4953.399999284744 2191.0000071525574 A 8 8 0 0 1 4961.399999284744 2199.0000071525574 L 4961.399999284744 2261.0000071525574 L 4961.399999284744 2261.0000071525574 A 8 8 0 0 1 4953.399999284744 2269.0000071525574 L 4421.399999284744 2269.0000071525574 L 4421.399999284744 2269.0000071525574 A 8 8 0 0 1 4413.399999284744 2261.0000071525574 L 4413.399999284744 2199.0000071525574 L 4413.399999284744 2199.0000071525574 A 8 8 0 0 1 4421.399999284744 2191.0000071525574 L 4687.399999284744 2191.0000071525574 Z" fill-opacity="1" stroke-opacity="1" stroke-miterlimit="10" stroke-width="5"/><text fill="rgb(0,0,0)" stroke="none" font-family="Avenir, Helvetica, Arial, sans-serif" font-size="32px" font-style="normal" font-weight="bold" text-decoration="normal" x="4687.399999284744" y="2246.0000071525574" text-anchor="middle" dominant-baseline="text-after-edge" fill-opacity="1">name</text><path fill="rgb(225,240,255)" stroke="rgb(29,122,218)" paint-order="fill stroke markers" d=" M 4687.399999284744 2981.4000071525575 L 4953.399999284744 2981.4000071525575 L 4953.399999284744 2981.4000071525575 A 8 8 0 0 1 4961.399999284744 2989.4000071525575 L 4961.399999284744 3051.4000071525575 L 4961.399999284744 3051.4000071525575 A 8 8 0 0 1 4953.399999284744 3059.4000071525575 L 4421.399999284744 3059.4000071525575 L 4421.399999284744 3059.4000071525575 A 8 8 0 0 1 4413.399999284744 3051.4000071525575 L 4413.399999284744 2989.4000071525575 L 4413.399999284744 2989.4000071525575 A 8 8 0 0 1 4421.399999284744 2981.4000071525575 L 4687.399999284744 2981.4000071525575 Z" fill-opacity="1" stroke-opacity="1" stroke-miterlimit="10" stroke-width="5"/><text fill="rgb(0,0,0)" stroke="none" font-family="Avenir, Helvetica, Arial, sans-serif" font-size="32px" font-style="normal" font-weight="bold" text-decoration="normal" x="4687.399999284744" y="3036.4000071525575" text-anchor="middle" dominant-baseline="text-after-edge" fill-opacity="1">cost_estimation_enabled</text><path fill="rgb(225,240,255)" stroke="rgb(29,122,218)" paint-order="fill stroke markers" d=" M 4687.399999284744 3114.400007867813 L 4953.399999284744 3114.400007867813 L 4953.399999284744 3114.400007867813 A 8 8 0 0 1 4961.399999284744 3122.400007867813 L 4961.399999284744 3184.400007867813 L 4961.399999284744 3184.400007867813 A 8 8 0 0 1 4953.399999284744 3192.400007867813 L 4421.399999284744 3192.400007867813 L 4421.399999284744 3192.400007867813 A 8 8 0 0 1 4413.399999284744 3184.400007867813 L 4413.399999284744 3122.400007867813 L 4413.399999284744 3122.400007867813 A 8 8 0 0 1 4421.399999284744 3114.400007867813 L 4687.399999284744 3114.400007867813 Z" fill-opacity="1" stroke-opacity="1" stroke-miterlimit="10" stroke-width="5"/><text fill="rgb(0,0,0)" stroke="none" font-family="Avenir, Helvetica, Arial, sans-serif" font-size="32px" font-style="normal" font-weight="bold" text-decoration="normal" x="4687.399999284744" y="3169.400007867813" text-anchor="middle" dominant-baseline="text-after-edge" fill-opacity="1">force_regenerate</text><path fill="rgb(225,240,255)" stroke="rgb(29,122,218)" paint-order="fill stroke markers" d=" M 4687.399999284744 3247.400008583069 L 4953.399999284744 3247.400008583069 L 4953.399999284744 3247.400008583069 A 8 8 0 0 1 4961.399999284744 3255.400008583069 L 4961.399999284744 3317.400008583069 L 4961.399999284744 3317.400008583069 A 8 8 0 0 1 4953.399999284744 3325.400008583069 L 4421.399999284744 3325.400008583069 L 4421.399999284744 3325.400008583069 A 8 8 0 0 1 4413.399999284744 3317.400008583069 L 4413.399999284744 3255.400008583069 L 4413.399999284744 3255.400008583069 A 8 8 0 0 1 4421.399999284744 3247.400008583069 L 4687.399999284744 3247.400008583069 Z" fill-opacity="1" stroke-opacity="1" stroke-miterlimit="10" stroke-width="5"/><text fill="rgb(0,0,0)" stroke="none" font-family="Avenir, Helvetica, Arial, sans-serif" font-size="32px" font-style="normal" font-weight="bold" text-decoration="normal" x="4687.399999284744" y="3302.400008583069" text-anchor="middle" dominant-baseline="text-after-edge" fill-opacity="1">name</text><path fill="rgb(225,240,255)" stroke="rgb(29,122,218)" paint-order="fill stroke markers" d=" M 4687.399999284744 3380.4000092983247 L 4953.399999284744 3380.4000092983247 L 4953.399999284744 3380.4000092983247 A 8 8 0 0 1 4961.399999284744 3388.4000092983247 L 4961.399999284744 3450.4000092983247 L 4961.399999284744 3450.4000092983247 A 8 8 0 0 1 4953.399999284744 3458.4000092983247 L 4421.399999284744 3458.4000092983247 L 4421.399999284744 3458.4000092983247 A 8 8 0 0 1 4413.399999284744 3450.4000092983247 L 4413.399999284744 3388.4000092983247 L 4413.399999284744 3388.4000092983247 A 8 8 0 0 1 4421.399999284744 3380.4000092983247 L 4687.399999284744 3380.4000092983247 Z" fill-opacity="1" stroke-opacity="1" stroke-miterlimit="10" stroke-width="5"/><text fill="rgb(0,0,0)" stroke="none" font-family="Avenir, Helvetica, Arial, sans-serif" font-size="32px" font-style="normal" font-weight="bold" text-decoration="normal" x="4687.399999284744" y="3435.4000092983247" text-anchor="middle" dominant-baseline="text-after-edge" fill-opacity="1">session_remember_minutes</text><path fill="rgb(225,240,255)" stroke="rgb(29,122,218)" paint-order="fill stroke markers" d=" M 4687.399999284744 3513.4000100135804 L 4953.399999284744 3513.4000100135804 L 4953.399999284744 3513.4000100135804 A 8 8 0 0 1 4961.399999284744 3521.4000100135804 L 4961.399999284744 3583.4000100135804 L 4961.399999284744 3583.4000100135804 A 8 8 0 0 1 4953.399999284744 3591.4000100135804 L 4421.399999284744 3591.4000100135804 L 4421.399999284744 3591.4000100135804 A 8 8 0 0 1 4413.399999284744 3583.4000100135804 L 4413.399999284744 3521.4000100135804 L 4413.399999284744 3521.4000100135804 A 8 8 0 0 1 4421.399999284744 3513.4000100135804 L 4687.399999284744 3513.4000100135804 Z" fill-opacity="1" stroke-opacity="1" stroke-miterlimit="10" stroke-width="5"/><text fill="rgb(0,0,0)" stroke="none" font-family="Avenir, Helvetica, Arial, sans-serif" font-size="32px" font-style="normal" font-weight="bold" text-decoration="normal" x="4687.399999284744" y="3568.4000100135804" text-anchor="middle" dominant-baseline="text-after-edge" fill-opacity="1">owners_team_saml_role_id</text><path fill="rgb(225,240,255)" stroke="rgb(29,122,218)" paint-order="fill stroke markers" d=" M 4687.399999284744 4178.400013589859 L 4953.399999284744 4178.400013589859 L 4953.399999284744 4178.400013589859 A 8 8 0 0 1 4961.399999284744 4186.400013589859 L 4961.399999284744 4248.400013589859 L 4961.399999284744 4248.400013589859 A 8 8 0 0 1 4953.399999284744 4256.400013589859 L 4421.399999284744 4256.400013589859 L 4421.399999284744 4256.400013589859 A 8 8 0 0 1 4413.399999284744 4248.400013589859 L 4413.399999284744 4186.400013589859 L 4413.399999284744 4186.400013589859 A 8 8 0 0 1 4421.399999284744 4178.400013589859 L 4687.399999284744 4178.400013589859 Z" fill-opacity="1" stroke-opacity="1" stroke-miterlimit="10" stroke-width="5"/><text fill="rgb(0,0,0)" stroke="none" font-family="Avenir, Helvetica, Arial, sans-serif" font-size="32px" font-style="normal" font-weight="bold" text-decoration="normal" x="4687.399999284744" y="4233.400013589859" text-anchor="middle" dominant-baseline="text-after-edge" fill-opacity="1">send_passing_statuses_for_untriggered_speculative_plans</text><path fill="rgb(225,240,255)" stroke="rgb(29,122,218)" paint-order="fill stroke markers" d=" M 4687.399999284744 3646.400010728836 L 4953.399999284744 3646.400010728836 L 4953.399999284744 3646.400010728836 A 8 8 0 0 1 4961.399999284744 3654.400010728836 L 4961.399999284744 3716.400010728836 L 4961.399999284744 3716.400010728836 A 8 8 0 0 1 4953.399999284744 3724.400010728836 L 4421.399999284744 3724.400010728836 L 4421.399999284744 3724.400010728836 A 8 8 0 0 1 4413.399999284744 3716.400010728836 L 4413.399999284744 3654.400010728836 L 4413.399999284744 3654.400010728836 A 8 8 0 0 1 4421.399999284744 3646.400010728836 L 4687.399999284744 3646.400010728836 Z" fill-opacity="1" stroke-opacity="1" stroke-miterlimit="10" stroke-width="5"/><text fill="rgb(0,0,0)" stroke="none" font-family="Avenir, Helvetica, Arial, sans-serif" font-size="32px" font-style="normal" font-weight="bold" text-decoration="normal" x="4687.399999284744" y="3701.400010728836" text-anchor="middle" dominant-baseline="text-after-edge" fill-opacity="1">collaborator_auth_policy</text><path fill="rgb(225,240,255)" stroke="rgb(29,122,218)" paint-order="fill stroke markers" d=" M 4687.399999284744 3779.400011444092 L 4953.399999284744 3779.400011444092 L 4953.399999284744 3779.400011444092 A 8 8 0 0 1 4961.399999284744 3787.400011444092 L 4961.399999284744 3849.400011444092 L 4961.399999284744 3849.400011444092 A 8 8 0 0 1 4953.399999284744 3857.400011444092 L 4421.399999284744 3857.400011444092 L 4421.399999284744 3857.400011444092 A 8 8 0 0 1 4413.399999284744 3849.400011444092 L 4413.399999284744 3787.400011444092 L 4413.399999284744 3787.400011444092 A 8 8 0 0 1 4421.399999284744 3779.400011444092 L 4687.399999284744 3779.400011444092 Z" fill-opacity="1" stroke-opacity="1" stroke-miterlimit="10" stroke-width="5"/><text fill="rgb(0,0,0)" stroke="none" font-family="Avenir, Helvetica, Arial, sans-serif" font-size="32px" font-style="normal" font-weight="bold" text-decoration="normal" x="4687.399999284744" y="3834.400011444092" text-anchor="middle" dominant-baseline="text-after-edge" fill-opacity="1">members</text><path fill="rgb(225,240,255)" stroke="rgb(29,122,218)" paint-order="fill stroke markers" d=" M 4687.399999284744 3912.4000121593476 L 4953.399999284744 3912.4000121593476 L 4953.399999284744 3912.4000121593476 A 8 8 0 0 1 4961.399999284744 3920.4000121593476 L 4961.399999284744 3982.4000121593476 L 4961.399999284744 3982.4000121593476 A 8 8 0 0 1 4953.399999284744 3990.4000121593476 L 4421.399999284744 3990.4000121593476 L 4421.399999284744 3990.4000121593476 A 8 8 0 0 1 4413.399999284744 3982.4000121593476 L 4413.399999284744 3920.4000121593476 L 4413.399999284744 3920.4000121593476 A 8 8 0 0 1 4421.399999284744 3912.4000121593476 L 4687.399999284744 3912.4000121593476 Z" fill-opacity="1" stroke-opacity="1" stroke-miterlimit="10" stroke-width="5"/><text fill="rgb(0,0,0)" stroke="none" font-family="Avenir, Helvetica, Arial, sans-serif" font-size="32px" font-style="normal" font-weight="bold" text-decoration="normal" x="4687.399999284744" y="3967.4000121593476" text-anchor="middle" dominant-baseline="text-after-edge" fill-opacity="1">email</text><path fill="rgb(225,240,255)" stroke="rgb(29,122,218)" paint-order="fill stroke markers" d=" M 4687.399999284744 4045.4000128746034 L 4953.399999284744 4045.4000128746034 L 4953.399999284744 4045.4000128746034 A 8 8 0 0 1 4961.399999284744 4053.4000128746034 L 4961.399999284744 4115.400012874603 L 4961.399999284744 4115.400012874603 A 8 8 0 0 1 4953.399999284744 4123.400012874603 L 4421.399999284744 4123.400012874603 L 4421.399999284744 4123.400012874603 A 8 8 0 0 1 4413.399999284744 4115.400012874603 L 4413.399999284744 4053.4000128746034 L 4413.399999284744 4053.4000128746034 A 8 8 0 0 1 4421.399999284744 4045.4000128746034 L 4687.399999284744 4045.4000128746034 Z" fill-opacity="1" stroke-opacity="1" stroke-miterlimit="10" stroke-width="5"/><text fill="rgb(0,0,0)" stroke="none" font-family="Avenir, Helvetica, Arial, sans-serif" font-size="32px" font-style="normal" font-weight="bold" text-decoration="normal" x="4687.399999284744" y="4100.400012874603" text-anchor="middle" dominant-baseline="text-after-edge" fill-opacity="1">session_timeout_minutes</text><path fill="rgb(40,167,69)" stroke="none" paint-order="stroke fill markers" d=" M 5790.4 2025.000005722046 L 6056.4 2025.000005722046 L 6056.4 2025.000005722046 A 8 8 0 0 1 6064.4 2033.000005722046 L 6064.4 2095.000005722046 L 6064.4 2095.000005722046 A 8 8 0 0 1 6056.4 2103.000005722046 L 5524.4 2103.000005722046 L 5524.4 2103.000005722046 A 8 8 0 0 1 5516.4 2095.000005722046 L 5516.4 2033.000005722046 L 5516.4 2033.000005722046 A 8 8 0 0 1 5524.4 2025.000005722046 L 5790.4 2025.000005722046 Z" fill-opacity="1"/><text fill="rgb(255,255,255)" stroke="none" font-family="Avenir, Helvetica, Arial, sans-serif" font-size="32px" font-style="normal" font-weight="bold" text-decoration="normal" x="5790.4" y="2080.000005722046" text-anchor="middle" dominant-baseline="text-after-edge" fill-opacity="1">default</text><path fill="rgb(40,167,69)" stroke="none" paint-order="stroke fill markers" d=" M 5790.4 2353.2000064373015 L 6056.4 2353.2000064373015 L 6056.4 2353.2000064373015 A 8 8 0 0 1 6064.4 2361.2000064373015 L 6064.4 2423.2000064373015 L 6064.4 2423.2000064373015 A 8 8 0 0 1 6056.4 2431.2000064373015 L 5524.4 2431.2000064373015 L 5524.4 2431.2000064373015 A 8 8 0 0 1 5516.4 2423.2000064373015 L 5516.4 2361.2000064373015 L 5516.4 2361.2000064373015 A 8 8 0 0 1 5524.4 2353.2000064373015 L 5790.4 2353.2000064373015 Z" fill-opacity="1"/><text fill="rgb(255,255,255)" stroke="none" font-family="Avenir, Helvetica, Arial, sans-serif" font-size="32px" font-style="normal" font-weight="bold" text-decoration="normal" x="5790.4" y="2408.2000064373015" text-anchor="middle" dominant-baseline="text-after-edge" fill-opacity="1">default</text><path fill="rgb(0,0,0)" stroke="rgb(0,0,0)" paint-order="fill stroke markers" d=" M 2306.0000014305115 261 L 2572.0000014305115 261 L 2572.0000014305115 261 A 8 8 0 0 1 2580.0000014305115 269 L 2580.0000014305115 331 L 2580.0000014305115 331 A 8 8 0 0 1 2572.0000014305115 339 L 2040.0000014305115 339 L 2040.0000014305115 339 A 8 8 0 0 1 2032.0000014305115 331 L 2032.0000014305115 269 L 2032.0000014305115 269 A 8 8 0 0 1 2040.0000014305115 261 L 2306.0000014305115 261 Z" fill-opacity="1" stroke-opacity="1" stroke-miterlimit="10" stroke-width="5"/><text fill="rgb(255,255,255)" stroke="none" font-family="Avenir, Helvetica, Arial, sans-serif" font-size="32px" font-style="normal" font-weight="bold" text-decoration="normal" x="2306.0000014305115" y="316" text-anchor="middle" dominant-baseline="text-after-edge" fill-opacity="1">organization_email</text><path fill="rgb(0,0,0)" stroke="rgb(0,0,0)" paint-order="fill stroke markers" d=" M 2306.0000014305115 394.00000071525574 L 2572.0000014305115 394.00000071525574 L 2572.0000014305115 394.00000071525574 A 8 8 0 0 1 2580.0000014305115 402.00000071525574 L 2580.0000014305115 464.00000071525574 L 2580.0000014305115 464.00000071525574 A 8 8 0 0 1 2572.0000014305115 472.00000071525574 L 2040.0000014305115 472.00000071525574 L 2040.0000014305115 472.00000071525574 A 8 8 0 0 1 2032.0000014305115 464.00000071525574 L 2032.0000014305115 402.00000071525574 L 2032.0000014305115 402.00000071525574 A 8 8 0 0 1 2040.0000014305115 394.00000071525574 L 2306.0000014305115 394.00000071525574 Z" fill-opacity="1" stroke-opacity="1" stroke-miterlimit="10" stroke-width="5"/><text fill="rgb(255,255,255)" stroke="none" font-family="Avenir, Helvetica, Arial, sans-serif" font-size="32px" font-style="normal" font-weight="bold" text-decoration="normal" x="2306.0000014305115" y="449.00000071525574" text-anchor="middle" dominant-baseline="text-after-edge" fill-opacity="1">organization_name</text><path fill="rgb(0,0,0)" stroke="rgb(0,0,0)" paint-order="fill stroke markers" d=" M 2306.0000014305115 527.0000014305115 L 2572.0000014305115 527.0000014305115 L 2572.0000014305115 527.0000014305115 A 8 8 0 0 1 2580.0000014305115 535.0000014305115 L 2580.0000014305115 597.0000014305115 L 2580.0000014305115 597.0000014305115 A 8 8 0 0 1 2572.0000014305115 605.0000014305115 L 2040.0000014305115 605.0000014305115 L 2040.0000014305115 605.0000014305115 A 8 8 0 0 1 2032.0000014305115 597.0000014305115 L 2032.0000014305115 535.0000014305115 L 2032.0000014305115 535.0000014305115 A 8 8 0 0 1 2040.0000014305115 527.0000014305115 L 2306.0000014305115 527.0000014305115 Z" fill-opacity="1" stroke-opacity="1" stroke-miterlimit="10" stroke-width="5"/><text fill="rgb(255,255,255)" stroke="none" font-family="Avenir, Helvetica, Arial, sans-serif" font-size="32px" font-style="normal" font-weight="bold" text-decoration="normal" x="2306.0000014305115" y="582.0000014305115" text-anchor="middle" dominant-baseline="text-after-edge" fill-opacity="1">registry_identifier</text><path fill="rgb(0,0,0)" stroke="rgb(0,0,0)" paint-order="fill stroke markers" d=" M 2306.0000014305115 660.0000021457672 L 2572.0000014305115 660.0000021457672 L 2572.0000014305115 660.0000021457672 A 8 8 0 0 1 2580.0000014305115 668.0000021457672 L 2580.0000014305115 730.0000021457672 L 2580.0000014305115 730.0000021457672 A 8 8 0 0 1 2572.0000014305115 738.0000021457672 L 2040.0000014305115 738.0000021457672 L 2040.0000014305115 738.0000021457672 A 8 8 0 0 1 2032.0000014305115 730.0000021457672 L 2032.0000014305115 668.0000021457672 L 2032.0000014305115 668.0000021457672 A 8 8 0 0 1 2040.0000014305115 660.0000021457672 L 2306.0000014305115 660.0000021457672 Z" fill-opacity="1" stroke-opacity="1" stroke-miterlimit="10" stroke-width="5"/><text fill="rgb(255,255,255)" stroke="none" font-family="Avenir, Helvetica, Arial, sans-serif" font-size="32px" font-style="normal" font-weight="bold" text-decoration="normal" x="2306.0000014305115" y="715.0000021457672" text-anchor="middle" dominant-baseline="text-after-edge" fill-opacity="1">registry_display_identifier</text><path fill="rgb(0,0,0)" stroke="rgb(0,0,0)" paint-order="fill stroke markers" d=" M 2306.0000014305115 793.000002861023 L 2572.0000014305115 793.000002861023 L 2572.0000014305115 793.000002861023 A 8 8 0 0 1 2580.0000014305115 801.000002861023 L 2580.0000014305115 863.000002861023 L 2580.0000014305115 863.000002861023 A 8 8 0 0 1 2572.0000014305115 871.000002861023 L 2040.0000014305115 871.000002861023 L 2040.0000014305115 871.000002861023 A 8 8 0 0 1 2032.0000014305115 863.000002861023 L 2032.0000014305115 801.000002861023 L 2032.0000014305115 801.000002861023 A 8 8 0 0 1 2040.0000014305115 793.000002861023 L 2306.0000014305115 793.000002861023 Z" fill-opacity="1" stroke-opacity="1" stroke-miterlimit="10" stroke-width="5"/><text fill="rgb(255,255,255)" stroke="none" font-family="Avenir, Helvetica, Arial, sans-serif" font-size="32px" font-style="normal" font-weight="bold" text-decoration="normal" x="2306.0000014305115" y="848.000002861023" text-anchor="middle" dominant-baseline="text-after-edge" fill-opacity="1">oauth_client_service_provider</text><path fill="rgb(0,0,0)" stroke="rgb(0,0,0)" paint-order="fill stroke markers" d=" M 2306.0000014305115 926.0000035762787 L 2572.0000014305115 926.0000035762787 L 2572.0000014305115 926.0000035762787 A 8 8 0 0 1 2580.0000014305115 934.0000035762787 L 2580.0000014305115 996.0000035762787 L 2580.0000014305115 996.0000035762787 A 8 8 0 0 1 2572.0000014305115 1004.0000035762787 L 2040.0000014305115 1004.0000035762787 L 2040.0000014305115 1004.0000035762787 A 8 8 0 0 1 2032.0000014305115 996.0000035762787 L 2032.0000014305115 934.0000035762787 L 2032.0000014305115 934.0000035762787 A 8 8 0 0 1 2040.0000014305115 926.0000035762787 L 2306.0000014305115 926.0000035762787 Z" fill-opacity="1" stroke-opacity="1" stroke-miterlimit="10" stroke-width="5"/><text fill="rgb(255,255,255)" stroke="none" font-family="Avenir, Helvetica, Arial, sans-serif" font-size="32px" font-style="normal" font-weight="bold" text-decoration="normal" x="2306.0000014305115" y="981.0000035762787" text-anchor="middle" dominant-baseline="text-after-edge" fill-opacity="1">oauth_client_api_url</text><path fill="rgb(0,0,0)" stroke="rgb(0,0,0)" paint-order="fill stroke markers" d=" M 2306.0000014305115 1059.0000042915344 L 2572.0000014305115 1059.0000042915344 L 2572.0000014305115 1059.0000042915344 A 8 8 0 0 1 2580.0000014305115 1067.0000042915344 L 2580.0000014305115 1129.0000042915344 L 2580.0000014305115 1129.0000042915344 A 8 8 0 0 1 2572.0000014305115 1137.0000042915344 L 2040.0000014305115 1137.0000042915344 L 2040.0000014305115 1137.0000042915344 A 8 8 0 0 1 2032.0000014305115 1129.0000042915344 L 2032.0000014305115 1067.0000042915344 L 2032.0000014305115 1067.0000042915344 A 8 8 0 0 1 2040.0000014305115 1059.0000042915344 L 2306.0000014305115 1059.0000042915344 Z" fill-opacity="1" stroke-opacity="1" stroke-miterlimit="10" stroke-width="5"/><text fill="rgb(255,255,255)" stroke="none" font-family="Avenir, Helvetica, Arial, sans-serif" font-size="32px" font-style="normal" font-weight="bold" text-decoration="normal" x="2306.0000014305115" y="1114.0000042915344" text-anchor="middle" dominant-baseline="text-after-edge" fill-opacity="1">oauth_client_http_url</text><path fill="rgb(0,0,0)" stroke="rgb(0,0,0)" paint-order="fill stroke markers" d=" M 2306.0000014305115 1192.0000050067902 L 2572.0000014305115 1192.0000050067902 L 2572.0000014305115 1192.0000050067902 A 8 8 0 0 1 2580.0000014305115 1200.0000050067902 L 2580.0000014305115 1262.0000050067902 L 2580.0000014305115 1262.0000050067902 A 8 8 0 0 1 2572.0000014305115 1270.0000050067902 L 2040.0000014305115 1270.0000050067902 L 2040.0000014305115 1270.0000050067902 A 8 8 0 0 1 2032.0000014305115 1262.0000050067902 L 2032.0000014305115 1200.0000050067902 L 2032.0000014305115 1200.0000050067902 A 8 8 0 0 1 2040.0000014305115 1192.0000050067902 L 2306.0000014305115 1192.0000050067902 Z" fill-opacity="1" stroke-opacity="1" stroke-miterlimit="10" stroke-width="5"/><text fill="rgb(255,255,255)" stroke="none" font-family="Avenir, Helvetica, Arial, sans-serif" font-size="32px" font-style="normal" font-weight="bold" text-decoration="normal" x="2306.0000014305115" y="1247.0000050067902" text-anchor="middle" dominant-baseline="text-after-edge" fill-opacity="1">oauth_client_oauth_token</text><g transform="scale(5,5) translate(-57.7,-9.200000000000001)"/></g></svg>